G04 #@! TF.GenerationSoftware,KiCad,Pcbnew,(6.0.10)*
G04 #@! TF.CreationDate,2024-03-14T08:00:36-04:00*
G04 #@! TF.ProjectId,RL2D,524c3244-2e6b-4696-9361-645f70636258,v0.6*
G04 #@! TF.SameCoordinates,Original*
G04 #@! TF.FileFunction,Legend,Top*
G04 #@! TF.FilePolarity,Positive*
%FSLAX46Y46*%
G04 Gerber Fmt 4.6, Leading zero omitted, Abs format (unit mm)*
G04 Created by KiCad (PCBNEW (6.0.10)) date 2024-03-14 08:00:36*
%MOMM*%
%LPD*%
G01*
G04 APERTURE LIST*
G04 Aperture macros list*
%AMRoundRect*
0 Rectangle with rounded corners*
0 $1 Rounding radius*
0 $2 $3 $4 $5 $6 $7 $8 $9 X,Y pos of 4 corners*
0 Add a 4 corners polygon primitive as box body*
4,1,4,$2,$3,$4,$5,$6,$7,$8,$9,$2,$3,0*
0 Add four circle primitives for the rounded corners*
1,1,$1+$1,$2,$3*
1,1,$1+$1,$4,$5*
1,1,$1+$1,$6,$7*
1,1,$1+$1,$8,$9*
0 Add four rect primitives between the rounded corners*
20,1,$1+$1,$2,$3,$4,$5,0*
20,1,$1+$1,$4,$5,$6,$7,0*
20,1,$1+$1,$6,$7,$8,$9,0*
20,1,$1+$1,$8,$9,$2,$3,0*%
G04 Aperture macros list end*
%ADD10C,0.150000*%
%ADD11C,0.635000*%
%ADD12C,0.120000*%
%ADD13C,1.600000*%
%ADD14O,1.600000X1.600000*%
%ADD15C,1.524000*%
%ADD16RoundRect,0.250000X0.600000X0.750000X-0.600000X0.750000X-0.600000X-0.750000X0.600000X-0.750000X0*%
%ADD17O,1.700000X2.000000*%
G04 APERTURE END LIST*
D10*
X195413333Y-102222380D02*
X195080000Y-101746190D01*
X194841904Y-102222380D02*
X194841904Y-101222380D01*
X195222857Y-101222380D01*
X195318095Y-101270000D01*
X195365714Y-101317619D01*
X195413333Y-101412857D01*
X195413333Y-101555714D01*
X195365714Y-101650952D01*
X195318095Y-101698571D01*
X195222857Y-101746190D01*
X194841904Y-101746190D01*
X196365714Y-102222380D02*
X195794285Y-102222380D01*
X196080000Y-102222380D02*
X196080000Y-101222380D01*
X195984761Y-101365238D01*
X195889523Y-101460476D01*
X195794285Y-101508095D01*
X181546666Y-63904761D02*
X181689523Y-63952380D01*
X181927619Y-63952380D01*
X182022857Y-63904761D01*
X182070476Y-63857142D01*
X182118095Y-63761904D01*
X182118095Y-63666666D01*
X182070476Y-63571428D01*
X182022857Y-63523809D01*
X181927619Y-63476190D01*
X181737142Y-63428571D01*
X181641904Y-63380952D01*
X181594285Y-63333333D01*
X181546666Y-63238095D01*
X181546666Y-63142857D01*
X181594285Y-63047619D01*
X181641904Y-63000000D01*
X181737142Y-62952380D01*
X181975238Y-62952380D01*
X182118095Y-63000000D01*
X182451428Y-62952380D02*
X182689523Y-63952380D01*
X182880000Y-63238095D01*
X183070476Y-63952380D01*
X183308571Y-62952380D01*
X184213333Y-63952380D02*
X183641904Y-63952380D01*
X183927619Y-63952380D02*
X183927619Y-62952380D01*
X183832380Y-63095238D01*
X183737142Y-63190476D01*
X183641904Y-63238095D01*
X162012380Y-99821904D02*
X162821904Y-99821904D01*
X162917142Y-99774285D01*
X162964761Y-99726666D01*
X163012380Y-99631428D01*
X163012380Y-99440952D01*
X162964761Y-99345714D01*
X162917142Y-99298095D01*
X162821904Y-99250476D01*
X162012380Y-99250476D01*
X163012380Y-98250476D02*
X163012380Y-98821904D01*
X163012380Y-98536190D02*
X162012380Y-98536190D01*
X162155238Y-98631428D01*
X162250476Y-98726666D01*
X162298095Y-98821904D01*
X139760476Y-70938571D02*
X140365238Y-69124285D01*
X140365238Y-66100476D01*
X139760476Y-64890952D01*
X139155714Y-64286190D01*
X137946190Y-63681428D01*
X136736666Y-63681428D01*
X135527142Y-64286190D01*
X134922380Y-64890952D01*
X134317619Y-66100476D01*
X133712857Y-68519523D01*
X133108095Y-69729047D01*
X132503333Y-70333809D01*
X131293809Y-70938571D01*
X130084285Y-70938571D01*
X128874761Y-70333809D01*
X128270000Y-69729047D01*
X127665238Y-68519523D01*
X127665238Y-65495714D01*
X128270000Y-63681428D01*
X140365238Y-58238571D02*
X127665238Y-58238571D01*
X127665238Y-55214761D01*
X128270000Y-53400476D01*
X129479523Y-52190952D01*
X130689047Y-51586190D01*
X133108095Y-50981428D01*
X134922380Y-50981428D01*
X137341428Y-51586190D01*
X138550952Y-52190952D01*
X139760476Y-53400476D01*
X140365238Y-55214761D01*
X140365238Y-58238571D01*
X201866666Y-63904761D02*
X202009523Y-63952380D01*
X202247619Y-63952380D01*
X202342857Y-63904761D01*
X202390476Y-63857142D01*
X202438095Y-63761904D01*
X202438095Y-63666666D01*
X202390476Y-63571428D01*
X202342857Y-63523809D01*
X202247619Y-63476190D01*
X202057142Y-63428571D01*
X201961904Y-63380952D01*
X201914285Y-63333333D01*
X201866666Y-63238095D01*
X201866666Y-63142857D01*
X201914285Y-63047619D01*
X201961904Y-63000000D01*
X202057142Y-62952380D01*
X202295238Y-62952380D01*
X202438095Y-63000000D01*
X202771428Y-62952380D02*
X203009523Y-63952380D01*
X203200000Y-63238095D01*
X203390476Y-63952380D01*
X203628571Y-62952380D01*
X203961904Y-63047619D02*
X204009523Y-63000000D01*
X204104761Y-62952380D01*
X204342857Y-62952380D01*
X204438095Y-63000000D01*
X204485714Y-63047619D01*
X204533333Y-63142857D01*
X204533333Y-63238095D01*
X204485714Y-63380952D01*
X203914285Y-63952380D01*
X204533333Y-63952380D01*
X105076666Y-57872380D02*
X105076666Y-58586666D01*
X105029047Y-58729523D01*
X104933809Y-58824761D01*
X104790952Y-58872380D01*
X104695714Y-58872380D01*
X106076666Y-58872380D02*
X105505238Y-58872380D01*
X105790952Y-58872380D02*
X105790952Y-57872380D01*
X105695714Y-58015238D01*
X105600476Y-58110476D01*
X105505238Y-58158095D01*
X191706666Y-85494761D02*
X191849523Y-85542380D01*
X192087619Y-85542380D01*
X192182857Y-85494761D01*
X192230476Y-85447142D01*
X192278095Y-85351904D01*
X192278095Y-85256666D01*
X192230476Y-85161428D01*
X192182857Y-85113809D01*
X192087619Y-85066190D01*
X191897142Y-85018571D01*
X191801904Y-84970952D01*
X191754285Y-84923333D01*
X191706666Y-84828095D01*
X191706666Y-84732857D01*
X191754285Y-84637619D01*
X191801904Y-84590000D01*
X191897142Y-84542380D01*
X192135238Y-84542380D01*
X192278095Y-84590000D01*
X192611428Y-84542380D02*
X192849523Y-85542380D01*
X193040000Y-84828095D01*
X193230476Y-85542380D01*
X193468571Y-84542380D01*
X193754285Y-84542380D02*
X194373333Y-84542380D01*
X194040000Y-84923333D01*
X194182857Y-84923333D01*
X194278095Y-84970952D01*
X194325714Y-85018571D01*
X194373333Y-85113809D01*
X194373333Y-85351904D01*
X194325714Y-85447142D01*
X194278095Y-85494761D01*
X194182857Y-85542380D01*
X193897142Y-85542380D01*
X193801904Y-85494761D01*
X193754285Y-85447142D01*
X88447619Y-87066666D02*
X89447619Y-87066666D01*
X88733333Y-87400000D01*
X89447619Y-87733333D01*
X88447619Y-87733333D01*
X88542857Y-88780952D02*
X88495238Y-88733333D01*
X88447619Y-88590476D01*
X88447619Y-88495238D01*
X88495238Y-88352380D01*
X88590476Y-88257142D01*
X88685714Y-88209523D01*
X88876190Y-88161904D01*
X89019047Y-88161904D01*
X89209523Y-88209523D01*
X89304761Y-88257142D01*
X89400000Y-88352380D01*
X89447619Y-88495238D01*
X89447619Y-88590476D01*
X89400000Y-88733333D01*
X89352380Y-88780952D01*
X89447619Y-89209523D02*
X88638095Y-89209523D01*
X88542857Y-89257142D01*
X88495238Y-89304761D01*
X88447619Y-89400000D01*
X88447619Y-89590476D01*
X88495238Y-89685714D01*
X88542857Y-89733333D01*
X88638095Y-89780952D01*
X89447619Y-89780952D01*
X88447619Y-90780952D02*
X88447619Y-90209523D01*
X88447619Y-90495238D02*
X89447619Y-90495238D01*
X89304761Y-90400000D01*
X89209523Y-90304761D01*
X89161904Y-90209523D01*
D11*
X77590952Y-93314761D02*
X75534761Y-93314761D01*
X75292857Y-93435714D01*
X75171904Y-93556666D01*
X75050952Y-93798571D01*
X75050952Y-94282380D01*
X75171904Y-94524285D01*
X75292857Y-94645238D01*
X75534761Y-94766190D01*
X77590952Y-94766190D01*
X75171904Y-95854761D02*
X75050952Y-96217619D01*
X75050952Y-96822380D01*
X75171904Y-97064285D01*
X75292857Y-97185238D01*
X75534761Y-97306190D01*
X75776666Y-97306190D01*
X76018571Y-97185238D01*
X76139523Y-97064285D01*
X76260476Y-96822380D01*
X76381428Y-96338571D01*
X76502380Y-96096666D01*
X76623333Y-95975714D01*
X76865238Y-95854761D01*
X77107142Y-95854761D01*
X77349047Y-95975714D01*
X77470000Y-96096666D01*
X77590952Y-96338571D01*
X77590952Y-96943333D01*
X77470000Y-97306190D01*
X76381428Y-99241428D02*
X76260476Y-99604285D01*
X76139523Y-99725238D01*
X75897619Y-99846190D01*
X75534761Y-99846190D01*
X75292857Y-99725238D01*
X75171904Y-99604285D01*
X75050952Y-99362380D01*
X75050952Y-98394761D01*
X77590952Y-98394761D01*
X77590952Y-99241428D01*
X77470000Y-99483333D01*
X77349047Y-99604285D01*
X77107142Y-99725238D01*
X76865238Y-99725238D01*
X76623333Y-99604285D01*
X76502380Y-99483333D01*
X76381428Y-99241428D01*
X76381428Y-98394761D01*
D10*
X195344285Y-50463571D02*
X195487142Y-50511190D01*
X195534761Y-50558809D01*
X195582380Y-50654047D01*
X195582380Y-50796904D01*
X195534761Y-50892142D01*
X195487142Y-50939761D01*
X195391904Y-50987380D01*
X195010952Y-50987380D01*
X195010952Y-49987380D01*
X195344285Y-49987380D01*
X195439523Y-50035000D01*
X195487142Y-50082619D01*
X195534761Y-50177857D01*
X195534761Y-50273095D01*
X195487142Y-50368333D01*
X195439523Y-50415952D01*
X195344285Y-50463571D01*
X195010952Y-50463571D01*
X195868095Y-49987380D02*
X196439523Y-49987380D01*
X196153809Y-50987380D02*
X196153809Y-49987380D01*
X197296666Y-50987380D02*
X196725238Y-50987380D01*
X197010952Y-50987380D02*
X197010952Y-49987380D01*
X196915714Y-50130238D01*
X196820476Y-50225476D01*
X196725238Y-50273095D01*
X179006666Y-47394761D02*
X179149523Y-47442380D01*
X179387619Y-47442380D01*
X179482857Y-47394761D01*
X179530476Y-47347142D01*
X179578095Y-47251904D01*
X179578095Y-47156666D01*
X179530476Y-47061428D01*
X179482857Y-47013809D01*
X179387619Y-46966190D01*
X179197142Y-46918571D01*
X179101904Y-46870952D01*
X179054285Y-46823333D01*
X179006666Y-46728095D01*
X179006666Y-46632857D01*
X179054285Y-46537619D01*
X179101904Y-46490000D01*
X179197142Y-46442380D01*
X179435238Y-46442380D01*
X179578095Y-46490000D01*
X179911428Y-46442380D02*
X180149523Y-47442380D01*
X180340000Y-46728095D01*
X180530476Y-47442380D01*
X180768571Y-46442380D01*
X181578095Y-46775714D02*
X181578095Y-47442380D01*
X181340000Y-46394761D02*
X181101904Y-47109047D01*
X181720952Y-47109047D01*
D12*
X192310000Y-102770000D02*
X192310000Y-105510000D01*
X192310000Y-105510000D02*
X198850000Y-105510000D01*
X198850000Y-102770000D02*
X192310000Y-102770000D01*
X189000000Y-104140000D02*
X192310000Y-104140000D01*
X198850000Y-105510000D02*
X198850000Y-102770000D01*
X202160000Y-104140000D02*
X198850000Y-104140000D01*
X189230000Y-59690000D02*
X176530000Y-59690000D01*
X176530000Y-59690000D02*
X176530000Y-72390000D01*
X176530000Y-72390000D02*
X189230000Y-72390000D01*
X189230000Y-72390000D02*
X189230000Y-59690000D01*
X124460000Y-22860000D02*
X172720000Y-22860000D01*
X172720000Y-22860000D02*
X172720000Y-109220000D01*
X172720000Y-109220000D02*
X124460000Y-109220000D01*
X124460000Y-109220000D02*
X124460000Y-22860000D01*
X124460000Y-48260000D02*
X142240000Y-48260000D01*
X142240000Y-48260000D02*
X142240000Y-76200000D01*
X142240000Y-76200000D02*
X124460000Y-76200000D01*
X124460000Y-76200000D02*
X124460000Y-48260000D01*
X209550000Y-59690000D02*
X196850000Y-59690000D01*
X196850000Y-59690000D02*
X196850000Y-72390000D01*
X196850000Y-72390000D02*
X209550000Y-72390000D01*
X209550000Y-72390000D02*
X209550000Y-59690000D01*
X123190000Y-41910000D02*
X85090000Y-41910000D01*
X85090000Y-41910000D02*
X85090000Y-80010000D01*
X85090000Y-80010000D02*
X123190000Y-80010000D01*
X123190000Y-80010000D02*
X123190000Y-41910000D01*
X114300000Y-60960000D02*
G75*
G03*
X114300000Y-60960000I-10160000J0D01*
G01*
X117640285Y-60960000D02*
G75*
G03*
X117640285Y-60960000I-13500285J0D01*
G01*
X198120000Y-82550000D02*
X185420000Y-82550000D01*
X185420000Y-82550000D02*
X185420000Y-95250000D01*
X185420000Y-95250000D02*
X198120000Y-95250000D01*
X198120000Y-95250000D02*
X198120000Y-82550000D01*
X115570000Y-88900000D02*
X97790000Y-88900000D01*
X97790000Y-88900000D02*
X97790000Y-104140000D01*
X97790000Y-104140000D02*
X115570000Y-104140000D01*
X115570000Y-104140000D02*
X115570000Y-88900000D01*
X123190000Y-83820000D02*
X73660000Y-83820000D01*
X73660000Y-83820000D02*
X73660000Y-109220000D01*
X73660000Y-109220000D02*
X123190000Y-109220000D01*
X123190000Y-109220000D02*
X123190000Y-83820000D01*
X73660000Y-92710000D02*
X78740000Y-92710000D01*
X78740000Y-92710000D02*
X78740000Y-100330000D01*
X78740000Y-100330000D02*
X73660000Y-100330000D01*
X73660000Y-100330000D02*
X73660000Y-92710000D01*
X115570000Y-88900000D02*
X121920000Y-88900000D01*
X121920000Y-88900000D02*
X121920000Y-104140000D01*
X121920000Y-104140000D02*
X115570000Y-104140000D01*
X115570000Y-104140000D02*
X115570000Y-88900000D01*
X199180000Y-47185000D02*
X199180000Y-44235000D01*
X193080000Y-47185000D02*
X193080000Y-44235000D01*
X192330000Y-48685000D02*
X192330000Y-49435000D01*
X199180000Y-44235000D02*
X196130000Y-44235000D01*
X199930000Y-48685000D02*
X198130000Y-48685000D01*
X198980000Y-49735000D02*
X200230000Y-49735000D01*
X199940000Y-49445000D02*
X199940000Y-43475000D01*
X192330000Y-47185000D02*
X193080000Y-47185000D01*
X199940000Y-43475000D02*
X192320000Y-43475000D01*
X199930000Y-49435000D02*
X199930000Y-48685000D01*
X193080000Y-44235000D02*
X196130000Y-44235000D01*
X196630000Y-49435000D02*
X196630000Y-48685000D01*
X196630000Y-48685000D02*
X195630000Y-48685000D01*
X192320000Y-49445000D02*
X199940000Y-49445000D01*
X198130000Y-48685000D02*
X198130000Y-49435000D01*
X194130000Y-49435000D02*
X194130000Y-48685000D01*
X200230000Y-49735000D02*
X200230000Y-48485000D01*
X192330000Y-49435000D02*
X194130000Y-49435000D01*
X199930000Y-47185000D02*
X199180000Y-47185000D01*
X198130000Y-49435000D02*
X199930000Y-49435000D01*
X195630000Y-49435000D02*
X196630000Y-49435000D01*
X195630000Y-48685000D02*
X195630000Y-49435000D01*
X194130000Y-48685000D02*
X192330000Y-48685000D01*
X192320000Y-43475000D02*
X192320000Y-49445000D01*
X185420000Y-38100000D02*
X175260000Y-38100000D01*
X175260000Y-38100000D02*
X175260000Y-43180000D01*
X175260000Y-43180000D02*
X185420000Y-43180000D01*
X185420000Y-43180000D02*
X185420000Y-38100000D01*
%LPC*%
D13*
X187960000Y-104140000D03*
D14*
X203200000Y-104140000D03*
D15*
X179070000Y-62230000D03*
X184150000Y-67310000D03*
X132080000Y-106680000D03*
X134620000Y-106680000D03*
X137160000Y-106680000D03*
X139700000Y-106680000D03*
X142240000Y-106680000D03*
X144780000Y-106680000D03*
X147320000Y-106680000D03*
X149860000Y-106680000D03*
X152400000Y-106680000D03*
X154940000Y-106680000D03*
X157480000Y-106680000D03*
X160020000Y-106680000D03*
X162560000Y-106680000D03*
X165100000Y-106680000D03*
X144780000Y-25400000D03*
X147320000Y-25400000D03*
X149860000Y-25400000D03*
X152400000Y-25400000D03*
X199390000Y-62230000D03*
X204470000Y-67310000D03*
X87630000Y-55880000D03*
X87630000Y-58420000D03*
X87630000Y-60960000D03*
X87630000Y-63500000D03*
X87630000Y-66040000D03*
X187960000Y-85090000D03*
X193040000Y-90170000D03*
X121920000Y-85090000D03*
X88900000Y-85090000D03*
X119380000Y-85090000D03*
X121920000Y-107950000D03*
X106680000Y-107950000D03*
X116840000Y-85090000D03*
X114300000Y-85090000D03*
X111760000Y-85090000D03*
X109220000Y-85090000D03*
X106680000Y-85090000D03*
X104140000Y-85090000D03*
X101600000Y-85090000D03*
X99060000Y-85090000D03*
X96520000Y-85090000D03*
X93980000Y-85090000D03*
X91440000Y-85090000D03*
X86360000Y-85090000D03*
X83820000Y-85090000D03*
X81280000Y-85090000D03*
X78740000Y-85090000D03*
X76200000Y-85090000D03*
X76200000Y-107950000D03*
X78740000Y-107950000D03*
X81280000Y-107950000D03*
X83820000Y-107950000D03*
X86360000Y-107950000D03*
X88900000Y-107950000D03*
X91440000Y-107950000D03*
X93980000Y-107950000D03*
X96520000Y-107950000D03*
X99060000Y-107950000D03*
X101600000Y-107950000D03*
X104140000Y-107950000D03*
X109220000Y-107950000D03*
X111760000Y-107950000D03*
X114300000Y-107950000D03*
X116840000Y-107950000D03*
X119380000Y-107950000D03*
D16*
X197380000Y-46985000D03*
D17*
X194880000Y-46985000D03*
D15*
X177800000Y-40640000D03*
X180340000Y-40640000D03*
X182880000Y-40640000D03*
M02*
