G04 #@! TF.GenerationSoftware,KiCad,Pcbnew,(6.0.10)*
G04 #@! TF.CreationDate,2024-03-14T08:00:36-04:00*
G04 #@! TF.ProjectId,RL2D,524c3244-2e6b-4696-9361-645f70636258,v0.6*
G04 #@! TF.SameCoordinates,Original*
G04 #@! TF.FileFunction,Soldermask,Top*
G04 #@! TF.FilePolarity,Negative*
%FSLAX46Y46*%
G04 Gerber Fmt 4.6, Leading zero omitted, Abs format (unit mm)*
G04 Created by KiCad (PCBNEW (6.0.10)) date 2024-03-14 08:00:36*
%MOMM*%
%LPD*%
G01*
G04 APERTURE LIST*
G04 Aperture macros list*
%AMRoundRect*
0 Rectangle with rounded corners*
0 $1 Rounding radius*
0 $2 $3 $4 $5 $6 $7 $8 $9 X,Y pos of 4 corners*
0 Add a 4 corners polygon primitive as box body*
4,1,4,$2,$3,$4,$5,$6,$7,$8,$9,$2,$3,0*
0 Add four circle primitives for the rounded corners*
1,1,$1+$1,$2,$3*
1,1,$1+$1,$4,$5*
1,1,$1+$1,$6,$7*
1,1,$1+$1,$8,$9*
0 Add four rect primitives between the rounded corners*
20,1,$1+$1,$2,$3,$4,$5,0*
20,1,$1+$1,$4,$5,$6,$7,0*
20,1,$1+$1,$6,$7,$8,$9,0*
20,1,$1+$1,$8,$9,$2,$3,0*%
G04 Aperture macros list end*
%ADD10C,1.600000*%
%ADD11O,1.600000X1.600000*%
%ADD12C,1.524000*%
%ADD13RoundRect,0.250000X0.600000X0.750000X-0.600000X0.750000X-0.600000X-0.750000X0.600000X-0.750000X0*%
%ADD14O,1.700000X2.000000*%
G04 APERTURE END LIST*
D10*
X187960000Y-104140000D03*
D11*
X203200000Y-104140000D03*
D12*
X179070000Y-62230000D03*
X184150000Y-67310000D03*
X132080000Y-106680000D03*
X134620000Y-106680000D03*
X137160000Y-106680000D03*
X139700000Y-106680000D03*
X142240000Y-106680000D03*
X144780000Y-106680000D03*
X147320000Y-106680000D03*
X149860000Y-106680000D03*
X152400000Y-106680000D03*
X154940000Y-106680000D03*
X157480000Y-106680000D03*
X160020000Y-106680000D03*
X162560000Y-106680000D03*
X165100000Y-106680000D03*
X144780000Y-25400000D03*
X147320000Y-25400000D03*
X149860000Y-25400000D03*
X152400000Y-25400000D03*
X199390000Y-62230000D03*
X204470000Y-67310000D03*
X87630000Y-55880000D03*
X87630000Y-58420000D03*
X87630000Y-60960000D03*
X87630000Y-63500000D03*
X87630000Y-66040000D03*
X187960000Y-85090000D03*
X193040000Y-90170000D03*
X121920000Y-85090000D03*
X88900000Y-85090000D03*
X119380000Y-85090000D03*
X121920000Y-107950000D03*
X106680000Y-107950000D03*
X116840000Y-85090000D03*
X114300000Y-85090000D03*
X111760000Y-85090000D03*
X109220000Y-85090000D03*
X106680000Y-85090000D03*
X104140000Y-85090000D03*
X101600000Y-85090000D03*
X99060000Y-85090000D03*
X96520000Y-85090000D03*
X93980000Y-85090000D03*
X91440000Y-85090000D03*
X86360000Y-85090000D03*
X83820000Y-85090000D03*
X81280000Y-85090000D03*
X78740000Y-85090000D03*
X76200000Y-85090000D03*
X76200000Y-107950000D03*
X78740000Y-107950000D03*
X81280000Y-107950000D03*
X83820000Y-107950000D03*
X86360000Y-107950000D03*
X88900000Y-107950000D03*
X91440000Y-107950000D03*
X93980000Y-107950000D03*
X96520000Y-107950000D03*
X99060000Y-107950000D03*
X101600000Y-107950000D03*
X104140000Y-107950000D03*
X109220000Y-107950000D03*
X111760000Y-107950000D03*
X114300000Y-107950000D03*
X116840000Y-107950000D03*
X119380000Y-107950000D03*
D13*
X197380000Y-46985000D03*
D14*
X194880000Y-46985000D03*
D12*
X177800000Y-40640000D03*
X180340000Y-40640000D03*
X182880000Y-40640000D03*
M02*
