%TF.GenerationSoftware,KiCad,Pcbnew,(6.0.10)*%
%TF.CreationDate,2024-03-15T22:27:44-04:00*%
%TF.ProjectId,RL2D,524c3244-2e6b-4696-9361-645f70636258,v0.6*%
%TF.SameCoordinates,Original*%
%TF.FileFunction,Drillmap*%
%TF.FilePolarity,Positive*%
%FSLAX45Y45*%
G04 Gerber Fmt 4.5, Leading zero omitted, Abs format (unit mm)*
G04 Created by KiCad (PCBNEW (6.0.10)) date 2024-03-15 22:27:44*
%MOMM*%
%LPD*%
G01*
G04 APERTURE LIST*
%ADD10C,0.200000*%
%ADD11C,0.040000*%
%ADD12C,0.076200*%
%ADD13C,0.080000*%
%ADD14C,0.100000*%
G04 APERTURE END LIST*
D10*
X6569091Y-11938975D02*
X6569020Y-11909967D01*
X6569137Y-11880850D01*
X6569439Y-11851620D01*
X6569925Y-11822277D01*
X6570595Y-11792816D01*
X6571447Y-11763235D01*
X6572481Y-11733532D01*
X6573694Y-11703705D01*
X6575086Y-11673750D01*
X6576656Y-11643665D01*
X6578403Y-11613447D01*
X6580325Y-11583095D01*
X6582422Y-11552605D01*
X6584692Y-11521975D01*
X6587134Y-11491202D01*
X6589747Y-11460284D01*
X6592530Y-11429218D01*
X6595481Y-11398002D01*
X6598601Y-11366633D01*
X6601886Y-11335108D01*
X6605337Y-11303426D01*
X6608953Y-11271582D01*
X6612731Y-11239576D01*
X6616671Y-11207404D01*
X6620772Y-11175064D01*
X6625033Y-11142552D01*
X6629452Y-11109868D01*
X6634029Y-11077007D01*
X6638762Y-11043968D01*
X6643650Y-11010748D01*
X6648693Y-10977344D01*
X6653888Y-10943755D01*
X11394624Y-11066164D02*
X11374560Y-11072550D01*
X11354726Y-11079218D01*
X11335108Y-11086173D01*
X11315691Y-11093418D01*
X11296460Y-11100957D01*
X11277402Y-11108795D01*
X11258502Y-11116935D01*
X11239744Y-11125383D01*
X11221115Y-11134142D01*
X11202600Y-11143216D01*
X11184185Y-11152609D01*
X11165855Y-11162327D01*
X11147594Y-11172372D01*
X11129390Y-11182750D01*
X11111227Y-11193463D01*
X11093091Y-11204518D01*
X11074967Y-11215916D01*
X11056841Y-11227664D01*
X11038698Y-11239765D01*
X11020524Y-11252223D01*
X11002304Y-11265042D01*
X10984024Y-11278227D01*
X10965668Y-11291782D01*
X10947223Y-11305710D01*
X10928675Y-11320017D01*
X10910007Y-11334706D01*
X10891207Y-11349782D01*
X10872259Y-11365248D01*
X10853149Y-11381109D01*
X10833862Y-11397369D01*
X10814384Y-11414033D01*
X10794700Y-11431103D01*
X19916428Y-4022419D02*
X19888069Y-4005709D01*
X19859121Y-3988991D01*
X19829576Y-3972280D01*
X19799424Y-3955589D01*
X19768659Y-3938933D01*
X19737270Y-3922326D01*
X19705250Y-3905782D01*
X19672590Y-3889315D01*
X19639281Y-3872939D01*
X19605315Y-3856669D01*
X19570684Y-3840517D01*
X19535378Y-3824499D01*
X19499390Y-3808629D01*
X19462711Y-3792920D01*
X19425332Y-3777387D01*
X19387245Y-3762044D01*
X19348441Y-3746905D01*
X19308912Y-3731984D01*
X19268649Y-3717295D01*
X19227644Y-3702852D01*
X19185889Y-3688670D01*
X19143374Y-3674762D01*
X19100091Y-3661143D01*
X19056032Y-3647826D01*
X19011187Y-3634827D01*
X18965550Y-3622158D01*
X18919111Y-3609834D01*
X18871861Y-3597869D01*
X18823792Y-3586277D01*
X18774896Y-3575073D01*
X18725164Y-3564270D01*
X18674588Y-3553882D01*
X18486273Y-11431103D02*
X18514151Y-11455651D01*
X18542432Y-11480966D01*
X18571088Y-11507014D01*
X18600090Y-11533758D01*
X18629411Y-11561161D01*
X18659023Y-11589188D01*
X18688897Y-11617803D01*
X18719007Y-11646969D01*
X18749323Y-11676650D01*
X18779819Y-11706810D01*
X18810466Y-11737413D01*
X18841236Y-11768423D01*
X18872101Y-11799803D01*
X18903034Y-11831518D01*
X18934006Y-11863531D01*
X18964989Y-11895806D01*
X18995956Y-11928307D01*
X19026879Y-11960998D01*
X19057729Y-11993842D01*
X19088480Y-12026804D01*
X19119101Y-12059848D01*
X19149567Y-12092936D01*
X19179849Y-12126034D01*
X19209919Y-12159104D01*
X19239748Y-12192111D01*
X19269310Y-12225019D01*
X19298576Y-12257791D01*
X19327519Y-12290392D01*
X19356110Y-12322784D01*
X19384321Y-12354933D01*
X19412124Y-12386801D01*
X19439493Y-12418354D01*
X22587443Y-12784614D02*
X22596043Y-12757497D01*
X22604271Y-12730490D01*
X22612134Y-12703585D01*
X22619638Y-12676777D01*
X22626791Y-12650058D01*
X22633598Y-12623423D01*
X22640068Y-12596865D01*
X22646207Y-12570378D01*
X22652021Y-12543954D01*
X22657517Y-12517588D01*
X22662703Y-12491273D01*
X22667585Y-12465003D01*
X22672169Y-12438770D01*
X22676463Y-12412569D01*
X22680474Y-12386394D01*
X22684208Y-12360237D01*
X22687672Y-12334092D01*
X22690873Y-12307953D01*
X22693818Y-12281813D01*
X22696513Y-12255666D01*
X22698966Y-12229505D01*
X22701183Y-12203324D01*
X22703171Y-12177116D01*
X22704936Y-12150875D01*
X22706487Y-12124594D01*
X22707828Y-12098267D01*
X22708968Y-12071888D01*
X22709914Y-12045449D01*
X22710671Y-12018945D01*
X22711246Y-11992369D01*
X22711648Y-11965714D01*
X22711881Y-11938975D01*
X13829378Y-10969709D02*
X13787517Y-10969525D01*
X13744827Y-10969322D01*
X13701358Y-10969103D01*
X13657156Y-10968871D01*
X13612271Y-10968630D01*
X13566752Y-10968382D01*
X13520647Y-10968130D01*
X13474003Y-10967878D01*
X13426871Y-10967628D01*
X13379297Y-10967384D01*
X13331332Y-10967149D01*
X13283022Y-10966926D01*
X13234418Y-10966718D01*
X13185566Y-10966528D01*
X13136516Y-10966359D01*
X13087317Y-10966214D01*
X13038015Y-10966096D01*
X12988662Y-10966009D01*
X12939303Y-10965955D01*
X12889989Y-10965938D01*
X12840767Y-10965961D01*
X12791686Y-10966026D01*
X12742795Y-10966137D01*
X12694142Y-10966297D01*
X12645775Y-10966509D01*
X12597744Y-10966776D01*
X12550095Y-10967102D01*
X12502879Y-10967488D01*
X12456143Y-10967939D01*
X12409936Y-10968457D01*
X12364307Y-10969046D01*
X12319303Y-10969709D01*
X21454251Y-14081241D02*
X21491952Y-14068212D01*
X21511011Y-14061148D01*
X21530193Y-14053716D01*
X21549488Y-14045912D01*
X21568884Y-14037735D01*
X21588371Y-14029183D01*
X21607938Y-14020253D01*
X21627573Y-14010943D01*
X21647265Y-14001252D01*
X21667004Y-13991176D01*
X21686779Y-13980715D01*
X21706577Y-13969865D01*
X21726390Y-13958625D01*
X21746204Y-13946992D01*
X21766010Y-13934964D01*
X21785796Y-13922540D01*
X21805551Y-13909716D01*
X21825265Y-13896491D01*
X21844925Y-13882863D01*
X21864522Y-13868830D01*
X21884044Y-13854389D01*
X21903480Y-13839538D01*
X21922819Y-13824275D01*
X21942050Y-13808598D01*
X21961162Y-13792505D01*
X21980144Y-13775994D01*
X21998985Y-13759062D01*
X22017674Y-13741707D01*
X22036199Y-13723928D01*
X22054551Y-13705722D01*
X22072717Y-13687086D01*
X22072717Y-13687086D02*
X22094084Y-13664348D01*
X22115167Y-13641023D01*
X22135962Y-13617133D01*
X22156461Y-13592703D01*
X22176659Y-13567756D01*
X22196550Y-13542316D01*
X22216130Y-13516406D01*
X22235391Y-13490049D01*
X22254329Y-13463269D01*
X22272937Y-13436090D01*
X22291210Y-13408535D01*
X22309143Y-13380627D01*
X22326729Y-13352390D01*
X22343963Y-13323847D01*
X22360839Y-13295023D01*
X22377351Y-13265940D01*
X22393494Y-13236622D01*
X22409262Y-13207092D01*
X22424649Y-13177374D01*
X22439650Y-13147492D01*
X22454259Y-13117468D01*
X22468470Y-13087327D01*
X22482277Y-13057092D01*
X22495675Y-13026786D01*
X22508659Y-12996433D01*
X22521221Y-12966056D01*
X22533357Y-12935679D01*
X22545061Y-12905326D01*
X22556328Y-12875019D01*
X22567150Y-12844782D01*
X22577524Y-12814640D01*
X22587443Y-12784614D01*
X12319303Y-10969709D02*
X12284457Y-10970284D01*
X12250023Y-10970916D01*
X12215998Y-10971615D01*
X12182380Y-10972392D01*
X12149166Y-10973255D01*
X12116353Y-10974217D01*
X12083938Y-10975285D01*
X12051918Y-10976471D01*
X12020291Y-10977784D01*
X11989053Y-10979234D01*
X11958202Y-10980832D01*
X11927735Y-10982587D01*
X11897649Y-10984510D01*
X11867941Y-10986610D01*
X11838608Y-10988898D01*
X11809648Y-10991382D01*
X11781058Y-10994075D01*
X11752834Y-10996985D01*
X11724974Y-11000122D01*
X11697476Y-11003497D01*
X11670336Y-11007119D01*
X11643551Y-11010999D01*
X11617118Y-11015146D01*
X11591036Y-11019571D01*
X11565300Y-11024283D01*
X11539908Y-11029293D01*
X11514858Y-11034611D01*
X11490146Y-11040246D01*
X11465769Y-11046209D01*
X11441725Y-11052510D01*
X11418011Y-11059158D01*
X11394624Y-11066164D01*
X9178582Y-13199528D02*
X9154784Y-13226000D01*
X9130744Y-13252516D01*
X9106456Y-13279094D01*
X9081911Y-13305753D01*
X9057101Y-13332510D01*
X9032018Y-13359384D01*
X9006653Y-13386394D01*
X8980999Y-13413558D01*
X8955047Y-13440895D01*
X8928789Y-13468422D01*
X8902217Y-13496158D01*
X8875322Y-13524122D01*
X8848098Y-13552332D01*
X8820534Y-13580806D01*
X8792625Y-13609563D01*
X8764360Y-13638621D01*
X8735732Y-13667999D01*
X8706733Y-13697715D01*
X8677355Y-13727787D01*
X8647589Y-13758233D01*
X8617428Y-13789073D01*
X8586862Y-13820324D01*
X8555885Y-13852006D01*
X8524488Y-13884135D01*
X8492662Y-13916731D01*
X8460400Y-13949813D01*
X8427693Y-13983398D01*
X8394534Y-14017504D01*
X8360913Y-14052151D01*
X8326823Y-14087357D01*
X8292257Y-14123140D01*
X8257204Y-14159518D01*
X21660972Y-7366000D02*
X21629762Y-7274547D01*
X21597967Y-7181954D01*
X21565618Y-7088371D01*
X21532748Y-6993949D01*
X21499389Y-6898839D01*
X21465573Y-6803192D01*
X21431331Y-6707158D01*
X21396695Y-6610888D01*
X21361698Y-6514533D01*
X21326372Y-6418243D01*
X21290748Y-6322171D01*
X21254858Y-6226465D01*
X21218735Y-6131278D01*
X21182410Y-6036759D01*
X21145915Y-5943060D01*
X21109283Y-5850331D01*
X21072544Y-5758723D01*
X21035732Y-5668388D01*
X20998878Y-5579475D01*
X20962013Y-5492135D01*
X20925171Y-5406520D01*
X20888383Y-5322779D01*
X20851680Y-5241065D01*
X20815096Y-5161527D01*
X20778661Y-5084316D01*
X20742408Y-5009584D01*
X20706368Y-4937480D01*
X20670574Y-4868156D01*
X20635058Y-4801763D01*
X20599852Y-4738450D01*
X20564987Y-4678370D01*
X20530495Y-4621673D01*
X8257204Y-14159518D02*
X8231274Y-14156915D01*
X8205323Y-14154260D01*
X8179330Y-14151498D01*
X8153269Y-14148575D01*
X8127118Y-14145438D01*
X8100853Y-14142031D01*
X8074450Y-14138301D01*
X8047886Y-14134193D01*
X8021136Y-14129654D01*
X7994178Y-14124629D01*
X7966987Y-14119064D01*
X7939541Y-14112904D01*
X7911814Y-14106096D01*
X7883785Y-14098586D01*
X7855428Y-14090319D01*
X7826722Y-14081241D01*
X15903565Y-3394869D02*
X15847349Y-3394975D01*
X15791710Y-3395094D01*
X15736700Y-3395224D01*
X15682368Y-3395366D01*
X15628765Y-3395518D01*
X15575941Y-3395680D01*
X15523946Y-3395850D01*
X15472831Y-3396027D01*
X15422645Y-3396212D01*
X15373439Y-3396402D01*
X15325263Y-3396597D01*
X15278167Y-3396796D01*
X15232202Y-3396999D01*
X15187418Y-3397203D01*
X15143864Y-3397409D01*
X15101593Y-3397616D01*
X15060652Y-3397822D01*
X15021093Y-3398027D01*
X14982967Y-3398230D01*
X14946322Y-3398429D01*
X14911210Y-3398625D01*
X14877681Y-3398816D01*
X14845784Y-3399001D01*
X14815571Y-3399179D01*
X14787091Y-3399350D01*
X14760395Y-3399513D01*
X14735532Y-3399666D01*
X14712554Y-3399809D01*
X14691510Y-3399941D01*
X14655426Y-3400168D01*
X14640486Y-3400262D01*
X9364545Y-4022419D02*
X9392904Y-4005709D01*
X9421851Y-3988991D01*
X9451397Y-3972280D01*
X9481548Y-3955589D01*
X9512314Y-3938933D01*
X9543702Y-3922326D01*
X9575723Y-3905782D01*
X9608383Y-3889315D01*
X9641691Y-3872939D01*
X9675657Y-3856669D01*
X9710289Y-3840517D01*
X9745594Y-3824499D01*
X9781582Y-3808629D01*
X9818262Y-3792920D01*
X9855640Y-3777387D01*
X9893728Y-3762044D01*
X9932531Y-3746905D01*
X9972060Y-3731984D01*
X10012323Y-3717295D01*
X10053328Y-3702852D01*
X10095084Y-3688670D01*
X10137599Y-3674762D01*
X10180882Y-3661143D01*
X10224941Y-3647826D01*
X10269785Y-3634827D01*
X10315422Y-3622158D01*
X10361862Y-3609834D01*
X10409111Y-3597869D01*
X10457180Y-3586277D01*
X10506076Y-3575073D01*
X10555808Y-3564270D01*
X10606385Y-3553882D01*
X7826722Y-14081241D02*
X7789020Y-14068212D01*
X7769961Y-14061148D01*
X7750779Y-14053716D01*
X7731485Y-14045912D01*
X7712088Y-14037735D01*
X7692601Y-14029183D01*
X7673035Y-14020253D01*
X7653400Y-14010943D01*
X7633707Y-14001252D01*
X7613968Y-13991176D01*
X7594194Y-13980715D01*
X7574395Y-13969865D01*
X7554583Y-13958625D01*
X7534768Y-13946992D01*
X7514962Y-13934964D01*
X7495176Y-13922540D01*
X7475421Y-13909716D01*
X7455708Y-13896491D01*
X7436047Y-13882863D01*
X7416450Y-13868830D01*
X7396928Y-13854389D01*
X7377492Y-13839538D01*
X7358153Y-13824275D01*
X7338922Y-13808598D01*
X7319810Y-13792505D01*
X7300828Y-13775994D01*
X7281987Y-13759062D01*
X7263299Y-13741707D01*
X7244773Y-13723928D01*
X7226422Y-13705722D01*
X7208256Y-13687086D01*
X9841480Y-12418354D02*
X9818199Y-12445339D01*
X9795248Y-12472069D01*
X9772609Y-12498554D01*
X9750268Y-12524803D01*
X9728207Y-12550824D01*
X9706410Y-12576625D01*
X9684860Y-12602217D01*
X9663542Y-12627607D01*
X9642438Y-12652805D01*
X9621533Y-12677819D01*
X9600809Y-12702658D01*
X9580251Y-12727331D01*
X9559842Y-12751847D01*
X9539566Y-12776214D01*
X9519406Y-12800442D01*
X9499346Y-12824540D01*
X9479369Y-12848515D01*
X9459459Y-12872378D01*
X9439600Y-12896136D01*
X9419776Y-12919799D01*
X9399969Y-12943375D01*
X9380164Y-12966874D01*
X9360344Y-12990303D01*
X9340492Y-13013673D01*
X9320593Y-13036991D01*
X9300629Y-13060267D01*
X9280585Y-13083510D01*
X9260444Y-13106727D01*
X9240190Y-13129929D01*
X9219805Y-13153124D01*
X9199275Y-13176320D01*
X9178582Y-13199528D01*
X14640486Y-10969709D02*
X14617633Y-10969773D01*
X14594767Y-10969837D01*
X14571873Y-10969900D01*
X14548936Y-10969961D01*
X14525942Y-10970021D01*
X14502875Y-10970080D01*
X14479721Y-10970135D01*
X14456466Y-10970189D01*
X14433094Y-10970239D01*
X14409590Y-10970286D01*
X14385941Y-10970329D01*
X14362130Y-10970368D01*
X14338144Y-10970402D01*
X14313967Y-10970431D01*
X14289585Y-10970456D01*
X14264983Y-10970474D01*
X14240147Y-10970487D01*
X14215060Y-10970493D01*
X14189710Y-10970493D01*
X14164080Y-10970485D01*
X14138157Y-10970470D01*
X14111924Y-10970448D01*
X14085369Y-10970417D01*
X14058475Y-10970377D01*
X14031228Y-10970329D01*
X14003614Y-10970271D01*
X13975617Y-10970204D01*
X13947223Y-10970126D01*
X13918417Y-10970038D01*
X13889184Y-10969940D01*
X13859509Y-10969830D01*
X13829378Y-10969709D01*
X8750477Y-4621673D02*
X8768860Y-4592630D01*
X8787141Y-4564577D01*
X8805336Y-4537480D01*
X8823459Y-4511308D01*
X8841527Y-4486028D01*
X8859554Y-4461608D01*
X8877557Y-4438015D01*
X8895550Y-4415217D01*
X8913549Y-4393181D01*
X8931569Y-4371876D01*
X8949626Y-4351269D01*
X8967735Y-4331327D01*
X8985912Y-4312018D01*
X9004171Y-4293311D01*
X9022529Y-4275171D01*
X9041000Y-4257568D01*
X9059600Y-4240468D01*
X9078345Y-4223840D01*
X9097249Y-4207651D01*
X9116328Y-4191869D01*
X9135598Y-4176460D01*
X9155074Y-4161394D01*
X9174771Y-4146637D01*
X9194705Y-4132158D01*
X9214891Y-4117923D01*
X9235345Y-4103901D01*
X9256081Y-4090059D01*
X9277116Y-4076365D01*
X9298464Y-4062786D01*
X9320141Y-4049290D01*
X9342163Y-4035845D01*
X9364545Y-4022419D01*
X22627084Y-10943755D02*
X22620609Y-10902945D01*
X22613915Y-10861864D01*
X22607003Y-10820515D01*
X22599875Y-10778901D01*
X22592534Y-10737026D01*
X22584982Y-10694892D01*
X22577219Y-10652504D01*
X22569249Y-10609865D01*
X22561074Y-10566978D01*
X22552694Y-10523846D01*
X22544113Y-10480474D01*
X22535331Y-10436864D01*
X22526352Y-10393020D01*
X22517176Y-10348946D01*
X22507806Y-10304645D01*
X22498244Y-10260119D01*
X22488492Y-10215374D01*
X22478552Y-10170411D01*
X22468425Y-10125235D01*
X22458113Y-10079849D01*
X22447619Y-10034256D01*
X22436945Y-9988460D01*
X22426091Y-9942465D01*
X22415062Y-9896273D01*
X22403857Y-9849888D01*
X22392479Y-9803313D01*
X22380931Y-9756553D01*
X22369214Y-9709610D01*
X22357329Y-9662487D01*
X22345280Y-9615189D01*
X22333067Y-9567719D01*
X22320693Y-9520079D01*
X10794700Y-11431103D02*
X10766821Y-11455651D01*
X10738540Y-11480966D01*
X10709885Y-11507014D01*
X10680883Y-11533758D01*
X10651562Y-11561161D01*
X10621950Y-11589188D01*
X10592075Y-11617803D01*
X10561966Y-11646969D01*
X10531649Y-11676650D01*
X10501153Y-11706810D01*
X10470506Y-11737413D01*
X10439736Y-11768423D01*
X10408871Y-11799803D01*
X10377939Y-11831518D01*
X10346966Y-11863531D01*
X10315983Y-11895806D01*
X10285016Y-11928307D01*
X10254093Y-11960998D01*
X10223243Y-11993842D01*
X10192493Y-12026804D01*
X10161871Y-12059848D01*
X10131405Y-12092936D01*
X10101124Y-12126034D01*
X10071054Y-12159104D01*
X10041224Y-12192111D01*
X10011662Y-12225019D01*
X9982396Y-12257791D01*
X9953454Y-12290392D01*
X9924863Y-12322784D01*
X9896652Y-12354933D01*
X9868848Y-12386801D01*
X9841480Y-12418354D01*
X6960279Y-9520079D02*
X6975893Y-9460591D01*
X6991761Y-9400824D01*
X7007889Y-9340756D01*
X7024284Y-9280363D01*
X7040953Y-9219624D01*
X7057903Y-9158516D01*
X7075141Y-9097017D01*
X7092675Y-9035102D01*
X7110510Y-8972751D01*
X7128654Y-8909940D01*
X7147113Y-8846647D01*
X7165896Y-8782849D01*
X7185008Y-8718523D01*
X7204456Y-8653647D01*
X7224249Y-8588198D01*
X7244391Y-8522154D01*
X7264891Y-8455491D01*
X7285756Y-8388188D01*
X7306992Y-8320222D01*
X7328606Y-8251570D01*
X7350605Y-8182209D01*
X7372996Y-8112116D01*
X7395786Y-8041270D01*
X7418982Y-7969648D01*
X7442591Y-7897226D01*
X7466620Y-7823983D01*
X7491076Y-7749895D01*
X7515966Y-7674941D01*
X7541296Y-7599097D01*
X7567074Y-7522340D01*
X7593306Y-7444649D01*
X7620000Y-7366000D01*
X6653888Y-10943755D02*
X6660363Y-10902945D01*
X6667058Y-10861864D01*
X6673970Y-10820515D01*
X6681097Y-10778901D01*
X6688438Y-10737026D01*
X6695991Y-10694892D01*
X6703753Y-10652504D01*
X6711723Y-10609865D01*
X6719899Y-10566978D01*
X6728278Y-10523846D01*
X6736860Y-10480474D01*
X6745641Y-10436864D01*
X6754621Y-10393020D01*
X6763796Y-10348946D01*
X6773166Y-10304645D01*
X6782728Y-10260119D01*
X6792480Y-10215374D01*
X6802421Y-10170411D01*
X6812548Y-10125235D01*
X6822859Y-10079849D01*
X6833353Y-10034256D01*
X6844028Y-9988460D01*
X6854881Y-9942465D01*
X6865911Y-9896273D01*
X6877115Y-9849888D01*
X6888493Y-9803313D01*
X6900041Y-9756553D01*
X6911759Y-9709610D01*
X6923643Y-9662487D01*
X6935693Y-9615189D01*
X6947905Y-9567719D01*
X6960279Y-9520079D01*
X20530495Y-4621673D02*
X20512112Y-4592630D01*
X20493831Y-4564577D01*
X20475637Y-4537480D01*
X20457513Y-4511308D01*
X20439446Y-4486028D01*
X20421418Y-4461608D01*
X20403416Y-4438015D01*
X20385422Y-4415217D01*
X20367423Y-4393181D01*
X20349403Y-4371876D01*
X20331346Y-4351269D01*
X20313237Y-4331327D01*
X20295060Y-4312018D01*
X20276801Y-4293311D01*
X20258444Y-4275171D01*
X20239972Y-4257568D01*
X20221372Y-4240468D01*
X20202628Y-4223840D01*
X20183723Y-4207651D01*
X20164644Y-4191869D01*
X20145374Y-4176460D01*
X20125898Y-4161394D01*
X20106201Y-4146637D01*
X20086267Y-4132158D01*
X20066081Y-4117923D01*
X20045627Y-4103901D01*
X20024891Y-4090059D01*
X20003856Y-4076365D01*
X19982508Y-4062786D01*
X19960831Y-4049290D01*
X19938809Y-4035845D01*
X19916428Y-4022419D01*
X20102390Y-13199528D02*
X20126189Y-13226000D01*
X20150228Y-13252516D01*
X20174516Y-13279094D01*
X20199061Y-13305753D01*
X20223871Y-13332510D01*
X20248955Y-13359384D01*
X20274319Y-13386394D01*
X20299974Y-13413558D01*
X20325926Y-13440895D01*
X20352184Y-13468422D01*
X20378756Y-13496158D01*
X20405650Y-13524122D01*
X20432875Y-13552332D01*
X20460438Y-13580806D01*
X20488348Y-13609563D01*
X20516613Y-13638621D01*
X20545240Y-13667999D01*
X20574239Y-13697715D01*
X20603618Y-13727787D01*
X20633383Y-13758233D01*
X20663545Y-13789073D01*
X20694110Y-13820324D01*
X20725087Y-13852006D01*
X20756485Y-13884135D01*
X20788310Y-13916731D01*
X20820572Y-13949813D01*
X20853279Y-13983398D01*
X20886439Y-14017504D01*
X20920059Y-14052151D01*
X20954149Y-14087357D01*
X20988716Y-14123140D01*
X21023768Y-14159518D01*
X7208256Y-13687086D02*
X7186888Y-13664348D01*
X7165805Y-13641023D01*
X7145011Y-13617133D01*
X7124512Y-13592703D01*
X7104314Y-13567756D01*
X7084422Y-13542316D01*
X7064843Y-13516406D01*
X7045581Y-13490049D01*
X7026644Y-13463269D01*
X7008035Y-13436090D01*
X6989762Y-13408535D01*
X6971829Y-13380627D01*
X6954243Y-13352390D01*
X6937009Y-13323847D01*
X6920133Y-13295023D01*
X6903621Y-13265940D01*
X6887478Y-13236622D01*
X6871710Y-13207092D01*
X6856323Y-13177374D01*
X6841322Y-13147492D01*
X6826713Y-13117468D01*
X6812502Y-13087327D01*
X6798695Y-13057092D01*
X6785297Y-13026786D01*
X6772314Y-12996433D01*
X6759751Y-12966056D01*
X6747615Y-12935679D01*
X6735911Y-12905326D01*
X6724645Y-12875019D01*
X6713822Y-12844782D01*
X6703448Y-12814640D01*
X6693530Y-12784614D01*
X7620000Y-7366000D02*
X7651210Y-7274547D01*
X7683005Y-7181954D01*
X7715354Y-7088371D01*
X7748224Y-6993949D01*
X7781583Y-6898839D01*
X7815400Y-6803192D01*
X7849642Y-6707158D01*
X7884277Y-6610888D01*
X7919274Y-6514533D01*
X7954600Y-6418243D01*
X7990224Y-6322171D01*
X8026114Y-6226465D01*
X8062237Y-6131278D01*
X8098562Y-6036759D01*
X8135057Y-5943060D01*
X8171690Y-5850331D01*
X8208428Y-5758723D01*
X8245240Y-5668388D01*
X8282095Y-5579475D01*
X8318959Y-5492135D01*
X8355801Y-5406520D01*
X8392590Y-5322779D01*
X8429292Y-5241065D01*
X8465877Y-5161527D01*
X8502312Y-5084316D01*
X8538565Y-5009584D01*
X8574604Y-4937480D01*
X8610398Y-4868156D01*
X8645914Y-4801763D01*
X8681121Y-4738450D01*
X8715986Y-4678370D01*
X8750477Y-4621673D01*
X21023768Y-14159518D02*
X21049699Y-14156915D01*
X21075649Y-14154260D01*
X21101642Y-14151498D01*
X21127703Y-14148575D01*
X21153854Y-14145438D01*
X21180119Y-14142031D01*
X21206522Y-14138301D01*
X21233087Y-14134193D01*
X21259836Y-14129654D01*
X21286794Y-14124629D01*
X21313985Y-14119064D01*
X21341432Y-14112904D01*
X21369158Y-14106096D01*
X21397187Y-14098586D01*
X21425544Y-14090319D01*
X21454251Y-14081241D01*
X22320693Y-9520079D02*
X22305079Y-9460591D01*
X22289211Y-9400824D01*
X22273084Y-9340756D01*
X22256689Y-9280363D01*
X22240019Y-9219624D01*
X22223069Y-9158516D01*
X22205831Y-9097017D01*
X22188298Y-9035102D01*
X22170463Y-8972751D01*
X22152319Y-8909940D01*
X22133859Y-8846647D01*
X22115077Y-8782849D01*
X22095964Y-8718523D01*
X22076516Y-8653647D01*
X22056724Y-8588198D01*
X22036581Y-8522154D01*
X22016081Y-8455491D01*
X21995216Y-8388188D01*
X21973981Y-8320222D01*
X21952367Y-8251570D01*
X21930368Y-8182209D01*
X21907976Y-8112116D01*
X21885186Y-8041270D01*
X21861990Y-7969648D01*
X21838381Y-7897226D01*
X21814352Y-7823983D01*
X21789896Y-7749895D01*
X21765007Y-7674941D01*
X21739676Y-7599097D01*
X21713899Y-7522340D01*
X21687666Y-7444649D01*
X21660972Y-7366000D01*
X16961669Y-10969709D02*
X16996515Y-10970284D01*
X17030950Y-10970916D01*
X17064974Y-10971615D01*
X17098592Y-10972392D01*
X17131806Y-10973255D01*
X17164619Y-10974217D01*
X17197034Y-10975285D01*
X17229054Y-10976471D01*
X17260681Y-10977784D01*
X17291919Y-10979234D01*
X17322770Y-10980832D01*
X17353237Y-10982587D01*
X17383323Y-10984510D01*
X17413031Y-10986610D01*
X17442364Y-10988898D01*
X17471324Y-10991382D01*
X17499914Y-10994075D01*
X17528138Y-10996985D01*
X17555998Y-11000122D01*
X17583496Y-11003497D01*
X17610637Y-11007119D01*
X17637422Y-11010999D01*
X17663854Y-11015146D01*
X17689936Y-11019571D01*
X17715672Y-11024283D01*
X17741064Y-11029293D01*
X17766114Y-11034611D01*
X17790826Y-11040246D01*
X17815203Y-11046209D01*
X17839247Y-11052510D01*
X17862961Y-11059158D01*
X17886348Y-11066164D01*
X13377407Y-3394869D02*
X13433624Y-3394975D01*
X13489262Y-3395094D01*
X13544272Y-3395224D01*
X13598604Y-3395366D01*
X13652207Y-3395518D01*
X13705031Y-3395680D01*
X13757026Y-3395850D01*
X13808142Y-3396027D01*
X13858328Y-3396212D01*
X13907534Y-3396402D01*
X13955710Y-3396597D01*
X14002805Y-3396796D01*
X14048770Y-3396999D01*
X14093555Y-3397203D01*
X14137108Y-3397409D01*
X14179380Y-3397616D01*
X14220320Y-3397822D01*
X14259879Y-3398027D01*
X14298006Y-3398230D01*
X14334650Y-3398429D01*
X14369762Y-3398625D01*
X14403291Y-3398816D01*
X14435188Y-3399001D01*
X14465401Y-3399179D01*
X14493881Y-3399350D01*
X14520577Y-3399513D01*
X14545440Y-3399666D01*
X14568418Y-3399809D01*
X14589462Y-3399941D01*
X14625546Y-3400168D01*
X14640486Y-3400262D01*
X14640486Y-10969709D02*
X14663339Y-10969773D01*
X14686205Y-10969837D01*
X14709099Y-10969900D01*
X14732036Y-10969961D01*
X14755030Y-10970021D01*
X14778097Y-10970080D01*
X14801251Y-10970135D01*
X14824506Y-10970189D01*
X14847878Y-10970239D01*
X14871382Y-10970286D01*
X14895032Y-10970329D01*
X14918842Y-10970368D01*
X14942828Y-10970402D01*
X14967005Y-10970431D01*
X14991387Y-10970456D01*
X15015989Y-10970474D01*
X15040826Y-10970487D01*
X15065912Y-10970493D01*
X15091262Y-10970493D01*
X15116892Y-10970485D01*
X15142816Y-10970470D01*
X15169048Y-10970448D01*
X15195603Y-10970417D01*
X15222497Y-10970377D01*
X15249744Y-10970329D01*
X15277358Y-10970271D01*
X15305355Y-10970204D01*
X15333749Y-10970126D01*
X15362556Y-10970038D01*
X15391789Y-10969940D01*
X15421463Y-10969830D01*
X15451594Y-10969709D01*
X6693530Y-12784614D02*
X6684929Y-12757497D01*
X6676701Y-12730490D01*
X6668838Y-12703585D01*
X6661334Y-12676777D01*
X6654181Y-12650058D01*
X6647374Y-12623423D01*
X6640904Y-12596865D01*
X6634766Y-12570378D01*
X6628951Y-12543954D01*
X6623455Y-12517588D01*
X6618269Y-12491273D01*
X6613388Y-12465003D01*
X6608803Y-12438770D01*
X6604509Y-12412569D01*
X6600498Y-12386394D01*
X6596764Y-12360237D01*
X6593300Y-12334092D01*
X6590099Y-12307953D01*
X6587154Y-12281813D01*
X6584459Y-12255666D01*
X6582006Y-12229505D01*
X6579790Y-12203324D01*
X6577802Y-12177116D01*
X6576036Y-12150875D01*
X6574486Y-12124594D01*
X6573144Y-12098267D01*
X6572004Y-12071888D01*
X6571059Y-12045449D01*
X6570302Y-12018945D01*
X6569726Y-11992369D01*
X6569325Y-11965714D01*
X6569091Y-11938975D01*
X18674588Y-3553882D02*
X18599959Y-3539613D01*
X18523638Y-3526215D01*
X18445717Y-3513661D01*
X18366288Y-3501924D01*
X18285443Y-3490977D01*
X18203275Y-3480792D01*
X18119875Y-3471344D01*
X18035335Y-3462604D01*
X17949747Y-3454545D01*
X17863203Y-3447140D01*
X17775795Y-3440363D01*
X17687615Y-3434185D01*
X17598755Y-3428581D01*
X17509308Y-3423522D01*
X17419364Y-3418982D01*
X17329016Y-3414933D01*
X17238356Y-3411349D01*
X17147477Y-3408202D01*
X17056469Y-3405465D01*
X16965425Y-3403112D01*
X16874437Y-3401114D01*
X16783596Y-3399445D01*
X16692996Y-3398077D01*
X16602728Y-3396984D01*
X16512883Y-3396139D01*
X16423554Y-3395514D01*
X16334833Y-3395082D01*
X16246812Y-3394816D01*
X16159583Y-3394688D01*
X16073237Y-3394673D01*
X15987867Y-3394742D01*
X15903565Y-3394869D01*
X15451594Y-10969709D02*
X15493455Y-10969525D01*
X15536145Y-10969322D01*
X15579615Y-10969103D01*
X15623816Y-10968871D01*
X15668701Y-10968630D01*
X15714220Y-10968382D01*
X15760326Y-10968130D01*
X15806969Y-10967878D01*
X15854102Y-10967628D01*
X15901675Y-10967384D01*
X15949640Y-10967149D01*
X15997950Y-10966926D01*
X16046554Y-10966718D01*
X16095406Y-10966528D01*
X16144456Y-10966359D01*
X16193656Y-10966214D01*
X16242957Y-10966096D01*
X16292311Y-10966009D01*
X16341669Y-10965955D01*
X16390983Y-10965938D01*
X16440205Y-10965961D01*
X16489286Y-10966026D01*
X16538177Y-10966137D01*
X16586830Y-10966297D01*
X16635197Y-10966509D01*
X16683229Y-10966776D01*
X16730877Y-10967102D01*
X16778093Y-10967488D01*
X16824829Y-10967939D01*
X16871036Y-10968457D01*
X16916665Y-10969046D01*
X16961669Y-10969709D01*
X10606385Y-3553882D02*
X10681014Y-3539613D01*
X10757335Y-3526215D01*
X10835256Y-3513661D01*
X10914684Y-3501924D01*
X10995529Y-3490977D01*
X11077697Y-3480792D01*
X11161098Y-3471344D01*
X11245638Y-3462604D01*
X11331226Y-3454545D01*
X11417769Y-3447140D01*
X11505177Y-3440363D01*
X11593357Y-3434185D01*
X11682217Y-3428581D01*
X11771665Y-3423522D01*
X11861608Y-3418982D01*
X11951956Y-3414933D01*
X12042616Y-3411349D01*
X12133496Y-3408202D01*
X12224504Y-3405465D01*
X12315548Y-3403112D01*
X12406536Y-3401114D01*
X12497376Y-3399445D01*
X12587976Y-3398077D01*
X12678245Y-3396984D01*
X12768089Y-3396139D01*
X12857418Y-3395514D01*
X12946139Y-3395082D01*
X13034160Y-3394816D01*
X13121390Y-3394688D01*
X13207735Y-3394673D01*
X13293105Y-3394742D01*
X13377407Y-3394869D01*
X17886348Y-11066164D02*
X17906413Y-11072550D01*
X17926246Y-11079218D01*
X17945865Y-11086173D01*
X17965282Y-11093418D01*
X17984512Y-11100957D01*
X18003570Y-11108795D01*
X18022471Y-11116935D01*
X18041228Y-11125383D01*
X18059857Y-11134142D01*
X18078372Y-11143216D01*
X18096787Y-11152609D01*
X18115118Y-11162327D01*
X18133378Y-11172372D01*
X18151582Y-11182750D01*
X18169745Y-11193463D01*
X18187881Y-11204518D01*
X18206005Y-11215916D01*
X18224131Y-11227664D01*
X18242274Y-11239765D01*
X18260448Y-11252223D01*
X18278668Y-11265042D01*
X18296949Y-11278227D01*
X18315304Y-11291782D01*
X18333749Y-11305710D01*
X18352298Y-11320017D01*
X18370965Y-11334706D01*
X18389766Y-11349782D01*
X18408714Y-11365248D01*
X18427824Y-11381109D01*
X18447111Y-11397369D01*
X18466589Y-11414033D01*
X18486273Y-11431103D01*
X19439493Y-12418354D02*
X19462774Y-12445339D01*
X19485725Y-12472069D01*
X19508363Y-12498554D01*
X19530704Y-12524803D01*
X19552765Y-12550824D01*
X19574562Y-12576625D01*
X19596112Y-12602217D01*
X19617431Y-12627607D01*
X19638534Y-12652805D01*
X19659440Y-12677819D01*
X19680163Y-12702658D01*
X19700722Y-12727331D01*
X19721130Y-12751847D01*
X19741407Y-12776214D01*
X19761567Y-12800442D01*
X19781627Y-12824540D01*
X19801604Y-12848515D01*
X19821513Y-12872378D01*
X19841372Y-12896136D01*
X19861197Y-12919799D01*
X19881003Y-12943375D01*
X19900809Y-12966874D01*
X19920629Y-12990303D01*
X19940480Y-13013673D01*
X19960380Y-13036991D01*
X19980343Y-13060267D01*
X20000387Y-13083510D01*
X20020528Y-13106727D01*
X20040783Y-13129929D01*
X20061167Y-13153124D01*
X20081697Y-13176320D01*
X20102390Y-13199528D01*
X22711881Y-11938975D02*
X22711952Y-11909967D01*
X22711836Y-11880850D01*
X22711534Y-11851620D01*
X22711047Y-11822277D01*
X22710377Y-11792816D01*
X22709525Y-11763235D01*
X22708492Y-11733532D01*
X22707278Y-11703705D01*
X22705886Y-11673750D01*
X22704316Y-11643665D01*
X22702569Y-11613447D01*
X22700647Y-11583095D01*
X22698550Y-11552605D01*
X22696280Y-11521975D01*
X22693838Y-11491202D01*
X22691225Y-11460284D01*
X22688442Y-11429218D01*
X22685491Y-11398002D01*
X22682372Y-11366633D01*
X22679086Y-11335108D01*
X22675635Y-11303426D01*
X22672020Y-11271582D01*
X22668241Y-11239576D01*
X22664301Y-11207404D01*
X22660200Y-11175064D01*
X22655939Y-11142552D01*
X22651520Y-11109868D01*
X22646943Y-11077007D01*
X22642210Y-11043968D01*
X22637322Y-11010748D01*
X22632279Y-10977344D01*
X22627084Y-10943755D01*
D11*
X9886000Y-9378000D02*
X9926000Y-9418000D01*
X9926000Y-9378000D02*
X9886000Y-9418000D01*
X10013000Y-10013000D02*
X10053000Y-10053000D01*
X10053000Y-10013000D02*
X10013000Y-10053000D01*
X10013000Y-10267000D02*
X10053000Y-10307000D01*
X10053000Y-10267000D02*
X10013000Y-10307000D01*
X10140000Y-9886000D02*
X10180000Y-9926000D01*
X10180000Y-9886000D02*
X10140000Y-9926000D01*
X10267000Y-9759000D02*
X10307000Y-9799000D01*
X10307000Y-9759000D02*
X10267000Y-9799000D01*
X11918000Y-9505000D02*
X11958000Y-9545000D01*
X11958000Y-9505000D02*
X11918000Y-9545000D01*
X12172000Y-7854000D02*
X12212000Y-7894000D01*
X12212000Y-7854000D02*
X12172000Y-7894000D01*
X12172000Y-9886000D02*
X12212000Y-9926000D01*
X12212000Y-9886000D02*
X12172000Y-9926000D01*
X12299000Y-9886000D02*
X12339000Y-9926000D01*
X12339000Y-9886000D02*
X12299000Y-9926000D01*
X12680000Y-9378000D02*
X12720000Y-9418000D01*
X12720000Y-9378000D02*
X12680000Y-9418000D01*
X12934000Y-9886000D02*
X12974000Y-9926000D01*
X12974000Y-9886000D02*
X12934000Y-9926000D01*
X13188000Y-9378000D02*
X13228000Y-9418000D01*
X13228000Y-9378000D02*
X13188000Y-9418000D01*
X13442000Y-9124000D02*
X13482000Y-9164000D01*
X13482000Y-9124000D02*
X13442000Y-9164000D01*
X13442000Y-9886000D02*
X13482000Y-9926000D01*
X13482000Y-9886000D02*
X13442000Y-9926000D01*
X13442000Y-10013000D02*
X13482000Y-10053000D01*
X13482000Y-10013000D02*
X13442000Y-10053000D01*
X13823000Y-8743000D02*
X13863000Y-8783000D01*
X13863000Y-8743000D02*
X13823000Y-8783000D01*
X13950000Y-9886000D02*
X13990000Y-9926000D01*
X13990000Y-9886000D02*
X13950000Y-9926000D01*
X13950000Y-10013000D02*
X13990000Y-10053000D01*
X13990000Y-10013000D02*
X13950000Y-10053000D01*
X14712000Y-8108000D02*
X14752000Y-8148000D01*
X14752000Y-8108000D02*
X14712000Y-8148000D01*
D12*
X7658100Y-8509000D02*
G75*
G03*
X7658100Y-8509000I-38100J0D01*
G01*
X7658100Y-10795000D02*
G75*
G03*
X7658100Y-10795000I-38100J0D01*
G01*
X7912100Y-8509000D02*
G75*
G03*
X7912100Y-8509000I-38100J0D01*
G01*
X7912100Y-10795000D02*
G75*
G03*
X7912100Y-10795000I-38100J0D01*
G01*
X8166100Y-8509000D02*
G75*
G03*
X8166100Y-8509000I-38100J0D01*
G01*
X8166100Y-10795000D02*
G75*
G03*
X8166100Y-10795000I-38100J0D01*
G01*
X8420100Y-8509000D02*
G75*
G03*
X8420100Y-8509000I-38100J0D01*
G01*
X8420100Y-10795000D02*
G75*
G03*
X8420100Y-10795000I-38100J0D01*
G01*
X8674100Y-8509000D02*
G75*
G03*
X8674100Y-8509000I-38100J0D01*
G01*
X8674100Y-10795000D02*
G75*
G03*
X8674100Y-10795000I-38100J0D01*
G01*
X8801100Y-5588000D02*
G75*
G03*
X8801100Y-5588000I-38100J0D01*
G01*
X8801100Y-5842000D02*
G75*
G03*
X8801100Y-5842000I-38100J0D01*
G01*
X8801100Y-6096000D02*
G75*
G03*
X8801100Y-6096000I-38100J0D01*
G01*
X8801100Y-6350000D02*
G75*
G03*
X8801100Y-6350000I-38100J0D01*
G01*
X8801100Y-6604000D02*
G75*
G03*
X8801100Y-6604000I-38100J0D01*
G01*
X8928100Y-8509000D02*
G75*
G03*
X8928100Y-8509000I-38100J0D01*
G01*
X8928100Y-10795000D02*
G75*
G03*
X8928100Y-10795000I-38100J0D01*
G01*
X9182100Y-8509000D02*
G75*
G03*
X9182100Y-8509000I-38100J0D01*
G01*
X9182100Y-10795000D02*
G75*
G03*
X9182100Y-10795000I-38100J0D01*
G01*
X9436100Y-8509000D02*
G75*
G03*
X9436100Y-8509000I-38100J0D01*
G01*
X9436100Y-10795000D02*
G75*
G03*
X9436100Y-10795000I-38100J0D01*
G01*
X9690100Y-8509000D02*
G75*
G03*
X9690100Y-8509000I-38100J0D01*
G01*
X9690100Y-10795000D02*
G75*
G03*
X9690100Y-10795000I-38100J0D01*
G01*
X9944100Y-8509000D02*
G75*
G03*
X9944100Y-8509000I-38100J0D01*
G01*
X9944100Y-10795000D02*
G75*
G03*
X9944100Y-10795000I-38100J0D01*
G01*
X10198100Y-8509000D02*
G75*
G03*
X10198100Y-8509000I-38100J0D01*
G01*
X10198100Y-10795000D02*
G75*
G03*
X10198100Y-10795000I-38100J0D01*
G01*
X10452100Y-8509000D02*
G75*
G03*
X10452100Y-8509000I-38100J0D01*
G01*
X10452100Y-10795000D02*
G75*
G03*
X10452100Y-10795000I-38100J0D01*
G01*
X10706100Y-8509000D02*
G75*
G03*
X10706100Y-8509000I-38100J0D01*
G01*
X10706100Y-10795000D02*
G75*
G03*
X10706100Y-10795000I-38100J0D01*
G01*
X10960100Y-8509000D02*
G75*
G03*
X10960100Y-8509000I-38100J0D01*
G01*
X10960100Y-10795000D02*
G75*
G03*
X10960100Y-10795000I-38100J0D01*
G01*
X11214100Y-8509000D02*
G75*
G03*
X11214100Y-8509000I-38100J0D01*
G01*
X11214100Y-10795000D02*
G75*
G03*
X11214100Y-10795000I-38100J0D01*
G01*
X11468100Y-8509000D02*
G75*
G03*
X11468100Y-8509000I-38100J0D01*
G01*
X11468100Y-10795000D02*
G75*
G03*
X11468100Y-10795000I-38100J0D01*
G01*
X11722100Y-8509000D02*
G75*
G03*
X11722100Y-8509000I-38100J0D01*
G01*
X11722100Y-10795000D02*
G75*
G03*
X11722100Y-10795000I-38100J0D01*
G01*
X11976100Y-8509000D02*
G75*
G03*
X11976100Y-8509000I-38100J0D01*
G01*
X11976100Y-10795000D02*
G75*
G03*
X11976100Y-10795000I-38100J0D01*
G01*
X12230100Y-8509000D02*
G75*
G03*
X12230100Y-8509000I-38100J0D01*
G01*
X12230100Y-10795000D02*
G75*
G03*
X12230100Y-10795000I-38100J0D01*
G01*
X13246100Y-10668000D02*
G75*
G03*
X13246100Y-10668000I-38100J0D01*
G01*
X13500100Y-10668000D02*
G75*
G03*
X13500100Y-10668000I-38100J0D01*
G01*
X13754100Y-10668000D02*
G75*
G03*
X13754100Y-10668000I-38100J0D01*
G01*
X14008100Y-10668000D02*
G75*
G03*
X14008100Y-10668000I-38100J0D01*
G01*
X14262100Y-10668000D02*
G75*
G03*
X14262100Y-10668000I-38100J0D01*
G01*
X14516100Y-2540000D02*
G75*
G03*
X14516100Y-2540000I-38100J0D01*
G01*
X14516100Y-10668000D02*
G75*
G03*
X14516100Y-10668000I-38100J0D01*
G01*
X14770100Y-2540000D02*
G75*
G03*
X14770100Y-2540000I-38100J0D01*
G01*
X14770100Y-10668000D02*
G75*
G03*
X14770100Y-10668000I-38100J0D01*
G01*
X15024100Y-2540000D02*
G75*
G03*
X15024100Y-2540000I-38100J0D01*
G01*
X15024100Y-10668000D02*
G75*
G03*
X15024100Y-10668000I-38100J0D01*
G01*
X15278100Y-2540000D02*
G75*
G03*
X15278100Y-2540000I-38100J0D01*
G01*
X15278100Y-10668000D02*
G75*
G03*
X15278100Y-10668000I-38100J0D01*
G01*
X15532100Y-10668000D02*
G75*
G03*
X15532100Y-10668000I-38100J0D01*
G01*
X15786100Y-10668000D02*
G75*
G03*
X15786100Y-10668000I-38100J0D01*
G01*
X16040100Y-10668000D02*
G75*
G03*
X16040100Y-10668000I-38100J0D01*
G01*
X16294100Y-10668000D02*
G75*
G03*
X16294100Y-10668000I-38100J0D01*
G01*
X16548100Y-10668000D02*
G75*
G03*
X16548100Y-10668000I-38100J0D01*
G01*
X17818100Y-4064000D02*
G75*
G03*
X17818100Y-4064000I-38100J0D01*
G01*
X17945100Y-6223000D02*
G75*
G03*
X17945100Y-6223000I-38100J0D01*
G01*
X18072100Y-4064000D02*
G75*
G03*
X18072100Y-4064000I-38100J0D01*
G01*
X18326100Y-4064000D02*
G75*
G03*
X18326100Y-4064000I-38100J0D01*
G01*
X18453100Y-6731000D02*
G75*
G03*
X18453100Y-6731000I-38100J0D01*
G01*
X18834100Y-8509000D02*
G75*
G03*
X18834100Y-8509000I-38100J0D01*
G01*
X19342100Y-9017000D02*
G75*
G03*
X19342100Y-9017000I-38100J0D01*
G01*
X19977100Y-6223000D02*
G75*
G03*
X19977100Y-6223000I-38100J0D01*
G01*
X20485100Y-6731000D02*
G75*
G03*
X20485100Y-6731000I-38100J0D01*
G01*
D13*
X18796000Y-10374000D02*
X18796000Y-10454000D01*
X18756000Y-10414000D02*
X18836000Y-10414000D01*
X20320000Y-10374000D02*
X20320000Y-10454000D01*
X20280000Y-10414000D02*
X20360000Y-10414000D01*
D14*
X19523356Y-4733856D02*
X19523356Y-4663144D01*
X19452644Y-4663144D01*
X19452644Y-4733856D01*
X19523356Y-4733856D01*
X19773356Y-4733856D02*
X19773356Y-4663144D01*
X19702644Y-4663144D01*
X19702644Y-4733856D01*
X19773356Y-4733856D01*
D10*
X6814957Y-14479994D02*
X6814957Y-14279994D01*
X6862576Y-14279994D01*
X6891147Y-14289518D01*
X6910195Y-14308565D01*
X6919719Y-14327613D01*
X6929242Y-14365708D01*
X6929242Y-14394280D01*
X6919719Y-14432375D01*
X6910195Y-14451423D01*
X6891147Y-14470470D01*
X6862576Y-14479994D01*
X6814957Y-14479994D01*
X7014957Y-14479994D02*
X7014957Y-14346661D01*
X7014957Y-14384756D02*
X7024481Y-14365708D01*
X7034004Y-14356184D01*
X7053052Y-14346661D01*
X7072100Y-14346661D01*
X7138766Y-14479994D02*
X7138766Y-14346661D01*
X7138766Y-14279994D02*
X7129242Y-14289518D01*
X7138766Y-14299042D01*
X7148290Y-14289518D01*
X7138766Y-14279994D01*
X7138766Y-14299042D01*
X7262576Y-14479994D02*
X7243528Y-14470470D01*
X7234004Y-14451423D01*
X7234004Y-14279994D01*
X7367338Y-14479994D02*
X7348290Y-14470470D01*
X7338766Y-14451423D01*
X7338766Y-14279994D01*
X7595909Y-14479994D02*
X7595909Y-14279994D01*
X7662576Y-14422851D01*
X7729242Y-14279994D01*
X7729242Y-14479994D01*
X7910195Y-14479994D02*
X7910195Y-14375232D01*
X7900671Y-14356184D01*
X7881623Y-14346661D01*
X7843528Y-14346661D01*
X7824481Y-14356184D01*
X7910195Y-14470470D02*
X7891147Y-14479994D01*
X7843528Y-14479994D01*
X7824481Y-14470470D01*
X7814957Y-14451423D01*
X7814957Y-14432375D01*
X7824481Y-14413327D01*
X7843528Y-14403804D01*
X7891147Y-14403804D01*
X7910195Y-14394280D01*
X8005433Y-14346661D02*
X8005433Y-14546661D01*
X8005433Y-14356184D02*
X8024481Y-14346661D01*
X8062576Y-14346661D01*
X8081623Y-14356184D01*
X8091147Y-14365708D01*
X8100671Y-14384756D01*
X8100671Y-14441899D01*
X8091147Y-14460946D01*
X8081623Y-14470470D01*
X8062576Y-14479994D01*
X8024481Y-14479994D01*
X8005433Y-14470470D01*
X8186385Y-14460946D02*
X8195909Y-14470470D01*
X8186385Y-14479994D01*
X8176862Y-14470470D01*
X8186385Y-14460946D01*
X8186385Y-14479994D01*
X8186385Y-14356184D02*
X8195909Y-14365708D01*
X8186385Y-14375232D01*
X8176862Y-14365708D01*
X8186385Y-14356184D01*
X8186385Y-14375232D01*
D11*
X6517338Y-14789518D02*
X6557338Y-14829518D01*
X6557338Y-14789518D02*
X6517338Y-14829518D01*
D10*
X6853052Y-14699994D02*
X6872100Y-14699994D01*
X6891147Y-14709518D01*
X6900671Y-14719042D01*
X6910195Y-14738089D01*
X6919719Y-14776184D01*
X6919719Y-14823804D01*
X6910195Y-14861899D01*
X6900671Y-14880946D01*
X6891147Y-14890470D01*
X6872100Y-14899994D01*
X6853052Y-14899994D01*
X6834004Y-14890470D01*
X6824481Y-14880946D01*
X6814957Y-14861899D01*
X6805433Y-14823804D01*
X6805433Y-14776184D01*
X6814957Y-14738089D01*
X6824481Y-14719042D01*
X6834004Y-14709518D01*
X6853052Y-14699994D01*
X7005433Y-14880946D02*
X7014957Y-14890470D01*
X7005433Y-14899994D01*
X6995909Y-14890470D01*
X7005433Y-14880946D01*
X7005433Y-14899994D01*
X7186385Y-14766661D02*
X7186385Y-14899994D01*
X7138766Y-14690470D02*
X7091147Y-14833327D01*
X7214957Y-14833327D01*
X7329242Y-14699994D02*
X7348290Y-14699994D01*
X7367338Y-14709518D01*
X7376862Y-14719042D01*
X7386385Y-14738089D01*
X7395909Y-14776184D01*
X7395909Y-14823804D01*
X7386385Y-14861899D01*
X7376862Y-14880946D01*
X7367338Y-14890470D01*
X7348290Y-14899994D01*
X7329242Y-14899994D01*
X7310195Y-14890470D01*
X7300671Y-14880946D01*
X7291147Y-14861899D01*
X7281623Y-14823804D01*
X7281623Y-14776184D01*
X7291147Y-14738089D01*
X7300671Y-14719042D01*
X7310195Y-14709518D01*
X7329242Y-14699994D01*
X7519719Y-14699994D02*
X7538766Y-14699994D01*
X7557814Y-14709518D01*
X7567338Y-14719042D01*
X7576862Y-14738089D01*
X7586385Y-14776184D01*
X7586385Y-14823804D01*
X7576862Y-14861899D01*
X7567338Y-14880946D01*
X7557814Y-14890470D01*
X7538766Y-14899994D01*
X7519719Y-14899994D01*
X7500671Y-14890470D01*
X7491147Y-14880946D01*
X7481623Y-14861899D01*
X7472100Y-14823804D01*
X7472100Y-14776184D01*
X7481623Y-14738089D01*
X7491147Y-14719042D01*
X7500671Y-14709518D01*
X7519719Y-14699994D01*
X7672100Y-14899994D02*
X7672100Y-14766661D01*
X7672100Y-14785708D02*
X7681623Y-14776184D01*
X7700671Y-14766661D01*
X7729242Y-14766661D01*
X7748290Y-14776184D01*
X7757814Y-14795232D01*
X7757814Y-14899994D01*
X7757814Y-14795232D02*
X7767338Y-14776184D01*
X7786385Y-14766661D01*
X7814957Y-14766661D01*
X7834004Y-14776184D01*
X7843528Y-14795232D01*
X7843528Y-14899994D01*
X7938766Y-14899994D02*
X7938766Y-14766661D01*
X7938766Y-14785708D02*
X7948290Y-14776184D01*
X7967338Y-14766661D01*
X7995909Y-14766661D01*
X8014957Y-14776184D01*
X8024481Y-14795232D01*
X8024481Y-14899994D01*
X8024481Y-14795232D02*
X8034004Y-14776184D01*
X8053052Y-14766661D01*
X8081623Y-14766661D01*
X8100671Y-14776184D01*
X8110195Y-14795232D01*
X8110195Y-14899994D01*
X8500671Y-14690470D02*
X8329242Y-14947613D01*
X8757814Y-14699994D02*
X8776862Y-14699994D01*
X8795909Y-14709518D01*
X8805433Y-14719042D01*
X8814957Y-14738089D01*
X8824481Y-14776184D01*
X8824481Y-14823804D01*
X8814957Y-14861899D01*
X8805433Y-14880946D01*
X8795909Y-14890470D01*
X8776862Y-14899994D01*
X8757814Y-14899994D01*
X8738766Y-14890470D01*
X8729243Y-14880946D01*
X8719719Y-14861899D01*
X8710195Y-14823804D01*
X8710195Y-14776184D01*
X8719719Y-14738089D01*
X8729243Y-14719042D01*
X8738766Y-14709518D01*
X8757814Y-14699994D01*
X8910195Y-14880946D02*
X8919719Y-14890470D01*
X8910195Y-14899994D01*
X8900671Y-14890470D01*
X8910195Y-14880946D01*
X8910195Y-14899994D01*
X9043528Y-14699994D02*
X9062576Y-14699994D01*
X9081624Y-14709518D01*
X9091147Y-14719042D01*
X9100671Y-14738089D01*
X9110195Y-14776184D01*
X9110195Y-14823804D01*
X9100671Y-14861899D01*
X9091147Y-14880946D01*
X9081624Y-14890470D01*
X9062576Y-14899994D01*
X9043528Y-14899994D01*
X9024481Y-14890470D01*
X9014957Y-14880946D01*
X9005433Y-14861899D01*
X8995909Y-14823804D01*
X8995909Y-14776184D01*
X9005433Y-14738089D01*
X9014957Y-14719042D01*
X9024481Y-14709518D01*
X9043528Y-14699994D01*
X9300671Y-14899994D02*
X9186385Y-14899994D01*
X9243528Y-14899994D02*
X9243528Y-14699994D01*
X9224481Y-14728565D01*
X9205433Y-14747613D01*
X9186385Y-14757137D01*
X9481624Y-14699994D02*
X9386385Y-14699994D01*
X9376862Y-14795232D01*
X9386385Y-14785708D01*
X9405433Y-14776184D01*
X9453052Y-14776184D01*
X9472100Y-14785708D01*
X9481624Y-14795232D01*
X9491147Y-14814280D01*
X9491147Y-14861899D01*
X9481624Y-14880946D01*
X9472100Y-14890470D01*
X9453052Y-14899994D01*
X9405433Y-14899994D01*
X9386385Y-14890470D01*
X9376862Y-14880946D01*
X9557814Y-14699994D02*
X9691147Y-14699994D01*
X9605433Y-14899994D01*
X9757814Y-14699994D02*
X9757814Y-14738089D01*
X9834004Y-14699994D02*
X9834004Y-14738089D01*
X10129243Y-14976184D02*
X10119719Y-14966661D01*
X10100671Y-14938089D01*
X10091147Y-14919042D01*
X10081624Y-14890470D01*
X10072100Y-14842851D01*
X10072100Y-14804756D01*
X10081624Y-14757137D01*
X10091147Y-14728565D01*
X10100671Y-14709518D01*
X10119719Y-14680946D01*
X10129243Y-14671423D01*
X10310195Y-14899994D02*
X10195909Y-14899994D01*
X10253052Y-14899994D02*
X10253052Y-14699994D01*
X10234004Y-14728565D01*
X10214957Y-14747613D01*
X10195909Y-14757137D01*
X10405433Y-14899994D02*
X10443528Y-14899994D01*
X10462576Y-14890470D01*
X10472100Y-14880946D01*
X10491147Y-14852375D01*
X10500671Y-14814280D01*
X10500671Y-14738089D01*
X10491147Y-14719042D01*
X10481624Y-14709518D01*
X10462576Y-14699994D01*
X10424481Y-14699994D01*
X10405433Y-14709518D01*
X10395909Y-14719042D01*
X10386385Y-14738089D01*
X10386385Y-14785708D01*
X10395909Y-14804756D01*
X10405433Y-14814280D01*
X10424481Y-14823804D01*
X10462576Y-14823804D01*
X10481624Y-14814280D01*
X10491147Y-14804756D01*
X10500671Y-14785708D01*
X10738766Y-14899994D02*
X10738766Y-14699994D01*
X10824481Y-14899994D02*
X10824481Y-14795232D01*
X10814957Y-14776184D01*
X10795909Y-14766661D01*
X10767338Y-14766661D01*
X10748290Y-14776184D01*
X10738766Y-14785708D01*
X10948290Y-14899994D02*
X10929243Y-14890470D01*
X10919719Y-14880946D01*
X10910195Y-14861899D01*
X10910195Y-14804756D01*
X10919719Y-14785708D01*
X10929243Y-14776184D01*
X10948290Y-14766661D01*
X10976862Y-14766661D01*
X10995909Y-14776184D01*
X11005433Y-14785708D01*
X11014957Y-14804756D01*
X11014957Y-14861899D01*
X11005433Y-14880946D01*
X10995909Y-14890470D01*
X10976862Y-14899994D01*
X10948290Y-14899994D01*
X11129243Y-14899994D02*
X11110195Y-14890470D01*
X11100671Y-14871423D01*
X11100671Y-14699994D01*
X11281623Y-14890470D02*
X11262576Y-14899994D01*
X11224481Y-14899994D01*
X11205433Y-14890470D01*
X11195909Y-14871423D01*
X11195909Y-14795232D01*
X11205433Y-14776184D01*
X11224481Y-14766661D01*
X11262576Y-14766661D01*
X11281623Y-14776184D01*
X11291147Y-14795232D01*
X11291147Y-14814280D01*
X11195909Y-14833327D01*
X11367338Y-14890470D02*
X11386385Y-14899994D01*
X11424481Y-14899994D01*
X11443528Y-14890470D01*
X11453052Y-14871423D01*
X11453052Y-14861899D01*
X11443528Y-14842851D01*
X11424481Y-14833327D01*
X11395909Y-14833327D01*
X11376862Y-14823804D01*
X11367338Y-14804756D01*
X11367338Y-14795232D01*
X11376862Y-14776184D01*
X11395909Y-14766661D01*
X11424481Y-14766661D01*
X11443528Y-14776184D01*
X11519719Y-14976184D02*
X11529242Y-14966661D01*
X11548290Y-14938089D01*
X11557814Y-14919042D01*
X11567338Y-14890470D01*
X11576862Y-14842851D01*
X11576862Y-14804756D01*
X11567338Y-14757137D01*
X11557814Y-14728565D01*
X11548290Y-14709518D01*
X11529242Y-14680946D01*
X11519719Y-14671423D01*
D12*
X6557338Y-15073518D02*
G75*
G03*
X6557338Y-15073518I-38100J0D01*
G01*
D10*
X6853052Y-14963994D02*
X6872100Y-14963994D01*
X6891147Y-14973518D01*
X6900671Y-14983042D01*
X6910195Y-15002089D01*
X6919719Y-15040184D01*
X6919719Y-15087804D01*
X6910195Y-15125899D01*
X6900671Y-15144946D01*
X6891147Y-15154470D01*
X6872100Y-15163994D01*
X6853052Y-15163994D01*
X6834004Y-15154470D01*
X6824481Y-15144946D01*
X6814957Y-15125899D01*
X6805433Y-15087804D01*
X6805433Y-15040184D01*
X6814957Y-15002089D01*
X6824481Y-14983042D01*
X6834004Y-14973518D01*
X6853052Y-14963994D01*
X7005433Y-15144946D02*
X7014957Y-15154470D01*
X7005433Y-15163994D01*
X6995909Y-15154470D01*
X7005433Y-15144946D01*
X7005433Y-15163994D01*
X7081623Y-14963994D02*
X7214957Y-14963994D01*
X7129242Y-15163994D01*
X7376862Y-14963994D02*
X7338766Y-14963994D01*
X7319719Y-14973518D01*
X7310195Y-14983042D01*
X7291147Y-15011613D01*
X7281623Y-15049708D01*
X7281623Y-15125899D01*
X7291147Y-15144946D01*
X7300671Y-15154470D01*
X7319719Y-15163994D01*
X7357814Y-15163994D01*
X7376862Y-15154470D01*
X7386385Y-15144946D01*
X7395909Y-15125899D01*
X7395909Y-15078280D01*
X7386385Y-15059232D01*
X7376862Y-15049708D01*
X7357814Y-15040184D01*
X7319719Y-15040184D01*
X7300671Y-15049708D01*
X7291147Y-15059232D01*
X7281623Y-15078280D01*
X7472100Y-14983042D02*
X7481623Y-14973518D01*
X7500671Y-14963994D01*
X7548290Y-14963994D01*
X7567338Y-14973518D01*
X7576862Y-14983042D01*
X7586385Y-15002089D01*
X7586385Y-15021137D01*
X7576862Y-15049708D01*
X7462576Y-15163994D01*
X7586385Y-15163994D01*
X7672100Y-15163994D02*
X7672100Y-15030661D01*
X7672100Y-15049708D02*
X7681623Y-15040184D01*
X7700671Y-15030661D01*
X7729242Y-15030661D01*
X7748290Y-15040184D01*
X7757814Y-15059232D01*
X7757814Y-15163994D01*
X7757814Y-15059232D02*
X7767338Y-15040184D01*
X7786385Y-15030661D01*
X7814957Y-15030661D01*
X7834004Y-15040184D01*
X7843528Y-15059232D01*
X7843528Y-15163994D01*
X7938766Y-15163994D02*
X7938766Y-15030661D01*
X7938766Y-15049708D02*
X7948290Y-15040184D01*
X7967338Y-15030661D01*
X7995909Y-15030661D01*
X8014957Y-15040184D01*
X8024481Y-15059232D01*
X8024481Y-15163994D01*
X8024481Y-15059232D02*
X8034004Y-15040184D01*
X8053052Y-15030661D01*
X8081623Y-15030661D01*
X8100671Y-15040184D01*
X8110195Y-15059232D01*
X8110195Y-15163994D01*
X8500671Y-14954470D02*
X8329242Y-15211613D01*
X8757814Y-14963994D02*
X8776862Y-14963994D01*
X8795909Y-14973518D01*
X8805433Y-14983042D01*
X8814957Y-15002089D01*
X8824481Y-15040184D01*
X8824481Y-15087804D01*
X8814957Y-15125899D01*
X8805433Y-15144946D01*
X8795909Y-15154470D01*
X8776862Y-15163994D01*
X8757814Y-15163994D01*
X8738766Y-15154470D01*
X8729243Y-15144946D01*
X8719719Y-15125899D01*
X8710195Y-15087804D01*
X8710195Y-15040184D01*
X8719719Y-15002089D01*
X8729243Y-14983042D01*
X8738766Y-14973518D01*
X8757814Y-14963994D01*
X8910195Y-15144946D02*
X8919719Y-15154470D01*
X8910195Y-15163994D01*
X8900671Y-15154470D01*
X8910195Y-15144946D01*
X8910195Y-15163994D01*
X9043528Y-14963994D02*
X9062576Y-14963994D01*
X9081624Y-14973518D01*
X9091147Y-14983042D01*
X9100671Y-15002089D01*
X9110195Y-15040184D01*
X9110195Y-15087804D01*
X9100671Y-15125899D01*
X9091147Y-15144946D01*
X9081624Y-15154470D01*
X9062576Y-15163994D01*
X9043528Y-15163994D01*
X9024481Y-15154470D01*
X9014957Y-15144946D01*
X9005433Y-15125899D01*
X8995909Y-15087804D01*
X8995909Y-15040184D01*
X9005433Y-15002089D01*
X9014957Y-14983042D01*
X9024481Y-14973518D01*
X9043528Y-14963994D01*
X9176862Y-14963994D02*
X9300671Y-14963994D01*
X9234004Y-15040184D01*
X9262576Y-15040184D01*
X9281624Y-15049708D01*
X9291147Y-15059232D01*
X9300671Y-15078280D01*
X9300671Y-15125899D01*
X9291147Y-15144946D01*
X9281624Y-15154470D01*
X9262576Y-15163994D01*
X9205433Y-15163994D01*
X9186385Y-15154470D01*
X9176862Y-15144946D01*
X9424481Y-14963994D02*
X9443528Y-14963994D01*
X9462576Y-14973518D01*
X9472100Y-14983042D01*
X9481624Y-15002089D01*
X9491147Y-15040184D01*
X9491147Y-15087804D01*
X9481624Y-15125899D01*
X9472100Y-15144946D01*
X9462576Y-15154470D01*
X9443528Y-15163994D01*
X9424481Y-15163994D01*
X9405433Y-15154470D01*
X9395909Y-15144946D01*
X9386385Y-15125899D01*
X9376862Y-15087804D01*
X9376862Y-15040184D01*
X9386385Y-15002089D01*
X9395909Y-14983042D01*
X9405433Y-14973518D01*
X9424481Y-14963994D01*
X9614957Y-14963994D02*
X9634004Y-14963994D01*
X9653052Y-14973518D01*
X9662576Y-14983042D01*
X9672100Y-15002089D01*
X9681624Y-15040184D01*
X9681624Y-15087804D01*
X9672100Y-15125899D01*
X9662576Y-15144946D01*
X9653052Y-15154470D01*
X9634004Y-15163994D01*
X9614957Y-15163994D01*
X9595909Y-15154470D01*
X9586385Y-15144946D01*
X9576862Y-15125899D01*
X9567338Y-15087804D01*
X9567338Y-15040184D01*
X9576862Y-15002089D01*
X9586385Y-14983042D01*
X9595909Y-14973518D01*
X9614957Y-14963994D01*
X9757814Y-14963994D02*
X9757814Y-15002089D01*
X9834004Y-14963994D02*
X9834004Y-15002089D01*
X10129243Y-15240184D02*
X10119719Y-15230661D01*
X10100671Y-15202089D01*
X10091147Y-15183042D01*
X10081624Y-15154470D01*
X10072100Y-15106851D01*
X10072100Y-15068756D01*
X10081624Y-15021137D01*
X10091147Y-14992565D01*
X10100671Y-14973518D01*
X10119719Y-14944946D01*
X10129243Y-14935423D01*
X10186385Y-14963994D02*
X10319719Y-14963994D01*
X10234004Y-15163994D01*
X10434004Y-14963994D02*
X10453052Y-14963994D01*
X10472100Y-14973518D01*
X10481624Y-14983042D01*
X10491147Y-15002089D01*
X10500671Y-15040184D01*
X10500671Y-15087804D01*
X10491147Y-15125899D01*
X10481624Y-15144946D01*
X10472100Y-15154470D01*
X10453052Y-15163994D01*
X10434004Y-15163994D01*
X10414957Y-15154470D01*
X10405433Y-15144946D01*
X10395909Y-15125899D01*
X10386385Y-15087804D01*
X10386385Y-15040184D01*
X10395909Y-15002089D01*
X10405433Y-14983042D01*
X10414957Y-14973518D01*
X10434004Y-14963994D01*
X10738766Y-15163994D02*
X10738766Y-14963994D01*
X10824481Y-15163994D02*
X10824481Y-15059232D01*
X10814957Y-15040184D01*
X10795909Y-15030661D01*
X10767338Y-15030661D01*
X10748290Y-15040184D01*
X10738766Y-15049708D01*
X10948290Y-15163994D02*
X10929243Y-15154470D01*
X10919719Y-15144946D01*
X10910195Y-15125899D01*
X10910195Y-15068756D01*
X10919719Y-15049708D01*
X10929243Y-15040184D01*
X10948290Y-15030661D01*
X10976862Y-15030661D01*
X10995909Y-15040184D01*
X11005433Y-15049708D01*
X11014957Y-15068756D01*
X11014957Y-15125899D01*
X11005433Y-15144946D01*
X10995909Y-15154470D01*
X10976862Y-15163994D01*
X10948290Y-15163994D01*
X11129243Y-15163994D02*
X11110195Y-15154470D01*
X11100671Y-15135423D01*
X11100671Y-14963994D01*
X11281623Y-15154470D02*
X11262576Y-15163994D01*
X11224481Y-15163994D01*
X11205433Y-15154470D01*
X11195909Y-15135423D01*
X11195909Y-15059232D01*
X11205433Y-15040184D01*
X11224481Y-15030661D01*
X11262576Y-15030661D01*
X11281623Y-15040184D01*
X11291147Y-15059232D01*
X11291147Y-15078280D01*
X11195909Y-15097327D01*
X11367338Y-15154470D02*
X11386385Y-15163994D01*
X11424481Y-15163994D01*
X11443528Y-15154470D01*
X11453052Y-15135423D01*
X11453052Y-15125899D01*
X11443528Y-15106851D01*
X11424481Y-15097327D01*
X11395909Y-15097327D01*
X11376862Y-15087804D01*
X11367338Y-15068756D01*
X11367338Y-15059232D01*
X11376862Y-15040184D01*
X11395909Y-15030661D01*
X11424481Y-15030661D01*
X11443528Y-15040184D01*
X11519719Y-15240184D02*
X11529242Y-15230661D01*
X11548290Y-15202089D01*
X11557814Y-15183042D01*
X11567338Y-15154470D01*
X11576862Y-15106851D01*
X11576862Y-15068756D01*
X11567338Y-15021137D01*
X11557814Y-14992565D01*
X11548290Y-14973518D01*
X11529242Y-14944946D01*
X11519719Y-14935423D01*
D13*
X6517338Y-15297518D02*
X6517338Y-15377518D01*
X6477338Y-15337518D02*
X6557338Y-15337518D01*
D10*
X6853052Y-15227994D02*
X6872100Y-15227994D01*
X6891147Y-15237518D01*
X6900671Y-15247042D01*
X6910195Y-15266089D01*
X6919719Y-15304184D01*
X6919719Y-15351804D01*
X6910195Y-15389899D01*
X6900671Y-15408946D01*
X6891147Y-15418470D01*
X6872100Y-15427994D01*
X6853052Y-15427994D01*
X6834004Y-15418470D01*
X6824481Y-15408946D01*
X6814957Y-15389899D01*
X6805433Y-15351804D01*
X6805433Y-15304184D01*
X6814957Y-15266089D01*
X6824481Y-15247042D01*
X6834004Y-15237518D01*
X6853052Y-15227994D01*
X7005433Y-15408946D02*
X7014957Y-15418470D01*
X7005433Y-15427994D01*
X6995909Y-15418470D01*
X7005433Y-15408946D01*
X7005433Y-15427994D01*
X7129242Y-15313708D02*
X7110195Y-15304184D01*
X7100671Y-15294661D01*
X7091147Y-15275613D01*
X7091147Y-15266089D01*
X7100671Y-15247042D01*
X7110195Y-15237518D01*
X7129242Y-15227994D01*
X7167338Y-15227994D01*
X7186385Y-15237518D01*
X7195909Y-15247042D01*
X7205433Y-15266089D01*
X7205433Y-15275613D01*
X7195909Y-15294661D01*
X7186385Y-15304184D01*
X7167338Y-15313708D01*
X7129242Y-15313708D01*
X7110195Y-15323232D01*
X7100671Y-15332756D01*
X7091147Y-15351804D01*
X7091147Y-15389899D01*
X7100671Y-15408946D01*
X7110195Y-15418470D01*
X7129242Y-15427994D01*
X7167338Y-15427994D01*
X7186385Y-15418470D01*
X7195909Y-15408946D01*
X7205433Y-15389899D01*
X7205433Y-15351804D01*
X7195909Y-15332756D01*
X7186385Y-15323232D01*
X7167338Y-15313708D01*
X7329242Y-15227994D02*
X7348290Y-15227994D01*
X7367338Y-15237518D01*
X7376862Y-15247042D01*
X7386385Y-15266089D01*
X7395909Y-15304184D01*
X7395909Y-15351804D01*
X7386385Y-15389899D01*
X7376862Y-15408946D01*
X7367338Y-15418470D01*
X7348290Y-15427994D01*
X7329242Y-15427994D01*
X7310195Y-15418470D01*
X7300671Y-15408946D01*
X7291147Y-15389899D01*
X7281623Y-15351804D01*
X7281623Y-15304184D01*
X7291147Y-15266089D01*
X7300671Y-15247042D01*
X7310195Y-15237518D01*
X7329242Y-15227994D01*
X7519719Y-15227994D02*
X7538766Y-15227994D01*
X7557814Y-15237518D01*
X7567338Y-15247042D01*
X7576862Y-15266089D01*
X7586385Y-15304184D01*
X7586385Y-15351804D01*
X7576862Y-15389899D01*
X7567338Y-15408946D01*
X7557814Y-15418470D01*
X7538766Y-15427994D01*
X7519719Y-15427994D01*
X7500671Y-15418470D01*
X7491147Y-15408946D01*
X7481623Y-15389899D01*
X7472100Y-15351804D01*
X7472100Y-15304184D01*
X7481623Y-15266089D01*
X7491147Y-15247042D01*
X7500671Y-15237518D01*
X7519719Y-15227994D01*
X7672100Y-15427994D02*
X7672100Y-15294661D01*
X7672100Y-15313708D02*
X7681623Y-15304184D01*
X7700671Y-15294661D01*
X7729242Y-15294661D01*
X7748290Y-15304184D01*
X7757814Y-15323232D01*
X7757814Y-15427994D01*
X7757814Y-15323232D02*
X7767338Y-15304184D01*
X7786385Y-15294661D01*
X7814957Y-15294661D01*
X7834004Y-15304184D01*
X7843528Y-15323232D01*
X7843528Y-15427994D01*
X7938766Y-15427994D02*
X7938766Y-15294661D01*
X7938766Y-15313708D02*
X7948290Y-15304184D01*
X7967338Y-15294661D01*
X7995909Y-15294661D01*
X8014957Y-15304184D01*
X8024481Y-15323232D01*
X8024481Y-15427994D01*
X8024481Y-15323232D02*
X8034004Y-15304184D01*
X8053052Y-15294661D01*
X8081623Y-15294661D01*
X8100671Y-15304184D01*
X8110195Y-15323232D01*
X8110195Y-15427994D01*
X8500671Y-15218470D02*
X8329242Y-15475613D01*
X8757814Y-15227994D02*
X8776862Y-15227994D01*
X8795909Y-15237518D01*
X8805433Y-15247042D01*
X8814957Y-15266089D01*
X8824481Y-15304184D01*
X8824481Y-15351804D01*
X8814957Y-15389899D01*
X8805433Y-15408946D01*
X8795909Y-15418470D01*
X8776862Y-15427994D01*
X8757814Y-15427994D01*
X8738766Y-15418470D01*
X8729243Y-15408946D01*
X8719719Y-15389899D01*
X8710195Y-15351804D01*
X8710195Y-15304184D01*
X8719719Y-15266089D01*
X8729243Y-15247042D01*
X8738766Y-15237518D01*
X8757814Y-15227994D01*
X8910195Y-15408946D02*
X8919719Y-15418470D01*
X8910195Y-15427994D01*
X8900671Y-15418470D01*
X8910195Y-15408946D01*
X8910195Y-15427994D01*
X9043528Y-15227994D02*
X9062576Y-15227994D01*
X9081624Y-15237518D01*
X9091147Y-15247042D01*
X9100671Y-15266089D01*
X9110195Y-15304184D01*
X9110195Y-15351804D01*
X9100671Y-15389899D01*
X9091147Y-15408946D01*
X9081624Y-15418470D01*
X9062576Y-15427994D01*
X9043528Y-15427994D01*
X9024481Y-15418470D01*
X9014957Y-15408946D01*
X9005433Y-15389899D01*
X8995909Y-15351804D01*
X8995909Y-15304184D01*
X9005433Y-15266089D01*
X9014957Y-15247042D01*
X9024481Y-15237518D01*
X9043528Y-15227994D01*
X9176862Y-15227994D02*
X9300671Y-15227994D01*
X9234004Y-15304184D01*
X9262576Y-15304184D01*
X9281624Y-15313708D01*
X9291147Y-15323232D01*
X9300671Y-15342280D01*
X9300671Y-15389899D01*
X9291147Y-15408946D01*
X9281624Y-15418470D01*
X9262576Y-15427994D01*
X9205433Y-15427994D01*
X9186385Y-15418470D01*
X9176862Y-15408946D01*
X9491147Y-15427994D02*
X9376862Y-15427994D01*
X9434004Y-15427994D02*
X9434004Y-15227994D01*
X9414957Y-15256565D01*
X9395909Y-15275613D01*
X9376862Y-15285137D01*
X9672100Y-15227994D02*
X9576862Y-15227994D01*
X9567338Y-15323232D01*
X9576862Y-15313708D01*
X9595909Y-15304184D01*
X9643528Y-15304184D01*
X9662576Y-15313708D01*
X9672100Y-15323232D01*
X9681624Y-15342280D01*
X9681624Y-15389899D01*
X9672100Y-15408946D01*
X9662576Y-15418470D01*
X9643528Y-15427994D01*
X9595909Y-15427994D01*
X9576862Y-15418470D01*
X9567338Y-15408946D01*
X9757814Y-15227994D02*
X9757814Y-15266089D01*
X9834004Y-15227994D02*
X9834004Y-15266089D01*
X10129243Y-15504184D02*
X10119719Y-15494661D01*
X10100671Y-15466089D01*
X10091147Y-15447042D01*
X10081624Y-15418470D01*
X10072100Y-15370851D01*
X10072100Y-15332756D01*
X10081624Y-15285137D01*
X10091147Y-15256565D01*
X10100671Y-15237518D01*
X10119719Y-15208946D01*
X10129243Y-15199423D01*
X10195909Y-15247042D02*
X10205433Y-15237518D01*
X10224481Y-15227994D01*
X10272100Y-15227994D01*
X10291147Y-15237518D01*
X10300671Y-15247042D01*
X10310195Y-15266089D01*
X10310195Y-15285137D01*
X10300671Y-15313708D01*
X10186385Y-15427994D01*
X10310195Y-15427994D01*
X10548290Y-15427994D02*
X10548290Y-15227994D01*
X10634004Y-15427994D02*
X10634004Y-15323232D01*
X10624481Y-15304184D01*
X10605433Y-15294661D01*
X10576862Y-15294661D01*
X10557814Y-15304184D01*
X10548290Y-15313708D01*
X10757814Y-15427994D02*
X10738766Y-15418470D01*
X10729243Y-15408946D01*
X10719719Y-15389899D01*
X10719719Y-15332756D01*
X10729243Y-15313708D01*
X10738766Y-15304184D01*
X10757814Y-15294661D01*
X10786385Y-15294661D01*
X10805433Y-15304184D01*
X10814957Y-15313708D01*
X10824481Y-15332756D01*
X10824481Y-15389899D01*
X10814957Y-15408946D01*
X10805433Y-15418470D01*
X10786385Y-15427994D01*
X10757814Y-15427994D01*
X10938766Y-15427994D02*
X10919719Y-15418470D01*
X10910195Y-15399423D01*
X10910195Y-15227994D01*
X11091147Y-15418470D02*
X11072100Y-15427994D01*
X11034004Y-15427994D01*
X11014957Y-15418470D01*
X11005433Y-15399423D01*
X11005433Y-15323232D01*
X11014957Y-15304184D01*
X11034004Y-15294661D01*
X11072100Y-15294661D01*
X11091147Y-15304184D01*
X11100671Y-15323232D01*
X11100671Y-15342280D01*
X11005433Y-15361327D01*
X11176862Y-15418470D02*
X11195909Y-15427994D01*
X11234004Y-15427994D01*
X11253052Y-15418470D01*
X11262576Y-15399423D01*
X11262576Y-15389899D01*
X11253052Y-15370851D01*
X11234004Y-15361327D01*
X11205433Y-15361327D01*
X11186385Y-15351804D01*
X11176862Y-15332756D01*
X11176862Y-15323232D01*
X11186385Y-15304184D01*
X11205433Y-15294661D01*
X11234004Y-15294661D01*
X11253052Y-15304184D01*
X11329242Y-15504184D02*
X11338766Y-15494661D01*
X11357814Y-15466089D01*
X11367338Y-15447042D01*
X11376862Y-15418470D01*
X11386385Y-15370851D01*
X11386385Y-15332756D01*
X11376862Y-15285137D01*
X11367338Y-15256565D01*
X11357814Y-15237518D01*
X11338766Y-15208946D01*
X11329242Y-15199423D01*
D14*
X6542693Y-15636874D02*
X6542693Y-15566162D01*
X6471982Y-15566162D01*
X6471982Y-15636874D01*
X6542693Y-15636874D01*
D10*
X6919719Y-15691994D02*
X6805433Y-15691994D01*
X6862576Y-15691994D02*
X6862576Y-15491994D01*
X6843528Y-15520565D01*
X6824481Y-15539613D01*
X6805433Y-15549137D01*
X7005433Y-15672946D02*
X7014957Y-15682470D01*
X7005433Y-15691994D01*
X6995909Y-15682470D01*
X7005433Y-15672946D01*
X7005433Y-15691994D01*
X7138766Y-15491994D02*
X7157814Y-15491994D01*
X7176862Y-15501518D01*
X7186385Y-15511042D01*
X7195909Y-15530089D01*
X7205433Y-15568184D01*
X7205433Y-15615804D01*
X7195909Y-15653899D01*
X7186385Y-15672946D01*
X7176862Y-15682470D01*
X7157814Y-15691994D01*
X7138766Y-15691994D01*
X7119719Y-15682470D01*
X7110195Y-15672946D01*
X7100671Y-15653899D01*
X7091147Y-15615804D01*
X7091147Y-15568184D01*
X7100671Y-15530089D01*
X7110195Y-15511042D01*
X7119719Y-15501518D01*
X7138766Y-15491994D01*
X7329242Y-15491994D02*
X7348290Y-15491994D01*
X7367338Y-15501518D01*
X7376862Y-15511042D01*
X7386385Y-15530089D01*
X7395909Y-15568184D01*
X7395909Y-15615804D01*
X7386385Y-15653899D01*
X7376862Y-15672946D01*
X7367338Y-15682470D01*
X7348290Y-15691994D01*
X7329242Y-15691994D01*
X7310195Y-15682470D01*
X7300671Y-15672946D01*
X7291147Y-15653899D01*
X7281623Y-15615804D01*
X7281623Y-15568184D01*
X7291147Y-15530089D01*
X7300671Y-15511042D01*
X7310195Y-15501518D01*
X7329242Y-15491994D01*
X7519719Y-15491994D02*
X7538766Y-15491994D01*
X7557814Y-15501518D01*
X7567338Y-15511042D01*
X7576862Y-15530089D01*
X7586385Y-15568184D01*
X7586385Y-15615804D01*
X7576862Y-15653899D01*
X7567338Y-15672946D01*
X7557814Y-15682470D01*
X7538766Y-15691994D01*
X7519719Y-15691994D01*
X7500671Y-15682470D01*
X7491147Y-15672946D01*
X7481623Y-15653899D01*
X7472100Y-15615804D01*
X7472100Y-15568184D01*
X7481623Y-15530089D01*
X7491147Y-15511042D01*
X7500671Y-15501518D01*
X7519719Y-15491994D01*
X7672100Y-15691994D02*
X7672100Y-15558661D01*
X7672100Y-15577708D02*
X7681623Y-15568184D01*
X7700671Y-15558661D01*
X7729242Y-15558661D01*
X7748290Y-15568184D01*
X7757814Y-15587232D01*
X7757814Y-15691994D01*
X7757814Y-15587232D02*
X7767338Y-15568184D01*
X7786385Y-15558661D01*
X7814957Y-15558661D01*
X7834004Y-15568184D01*
X7843528Y-15587232D01*
X7843528Y-15691994D01*
X7938766Y-15691994D02*
X7938766Y-15558661D01*
X7938766Y-15577708D02*
X7948290Y-15568184D01*
X7967338Y-15558661D01*
X7995909Y-15558661D01*
X8014957Y-15568184D01*
X8024481Y-15587232D01*
X8024481Y-15691994D01*
X8024481Y-15587232D02*
X8034004Y-15568184D01*
X8053052Y-15558661D01*
X8081623Y-15558661D01*
X8100671Y-15568184D01*
X8110195Y-15587232D01*
X8110195Y-15691994D01*
X8500671Y-15482470D02*
X8329242Y-15739613D01*
X8757814Y-15491994D02*
X8776862Y-15491994D01*
X8795909Y-15501518D01*
X8805433Y-15511042D01*
X8814957Y-15530089D01*
X8824481Y-15568184D01*
X8824481Y-15615804D01*
X8814957Y-15653899D01*
X8805433Y-15672946D01*
X8795909Y-15682470D01*
X8776862Y-15691994D01*
X8757814Y-15691994D01*
X8738766Y-15682470D01*
X8729243Y-15672946D01*
X8719719Y-15653899D01*
X8710195Y-15615804D01*
X8710195Y-15568184D01*
X8719719Y-15530089D01*
X8729243Y-15511042D01*
X8738766Y-15501518D01*
X8757814Y-15491994D01*
X8910195Y-15672946D02*
X8919719Y-15682470D01*
X8910195Y-15691994D01*
X8900671Y-15682470D01*
X8910195Y-15672946D01*
X8910195Y-15691994D01*
X9043528Y-15491994D02*
X9062576Y-15491994D01*
X9081624Y-15501518D01*
X9091147Y-15511042D01*
X9100671Y-15530089D01*
X9110195Y-15568184D01*
X9110195Y-15615804D01*
X9100671Y-15653899D01*
X9091147Y-15672946D01*
X9081624Y-15682470D01*
X9062576Y-15691994D01*
X9043528Y-15691994D01*
X9024481Y-15682470D01*
X9014957Y-15672946D01*
X9005433Y-15653899D01*
X8995909Y-15615804D01*
X8995909Y-15568184D01*
X9005433Y-15530089D01*
X9014957Y-15511042D01*
X9024481Y-15501518D01*
X9043528Y-15491994D01*
X9176862Y-15491994D02*
X9300671Y-15491994D01*
X9234004Y-15568184D01*
X9262576Y-15568184D01*
X9281624Y-15577708D01*
X9291147Y-15587232D01*
X9300671Y-15606280D01*
X9300671Y-15653899D01*
X9291147Y-15672946D01*
X9281624Y-15682470D01*
X9262576Y-15691994D01*
X9205433Y-15691994D01*
X9186385Y-15682470D01*
X9176862Y-15672946D01*
X9395909Y-15691994D02*
X9434004Y-15691994D01*
X9453052Y-15682470D01*
X9462576Y-15672946D01*
X9481624Y-15644375D01*
X9491147Y-15606280D01*
X9491147Y-15530089D01*
X9481624Y-15511042D01*
X9472100Y-15501518D01*
X9453052Y-15491994D01*
X9414957Y-15491994D01*
X9395909Y-15501518D01*
X9386385Y-15511042D01*
X9376862Y-15530089D01*
X9376862Y-15577708D01*
X9386385Y-15596756D01*
X9395909Y-15606280D01*
X9414957Y-15615804D01*
X9453052Y-15615804D01*
X9472100Y-15606280D01*
X9481624Y-15596756D01*
X9491147Y-15577708D01*
X9662576Y-15558661D02*
X9662576Y-15691994D01*
X9614957Y-15482470D02*
X9567338Y-15625327D01*
X9691147Y-15625327D01*
X9757814Y-15491994D02*
X9757814Y-15530089D01*
X9834004Y-15491994D02*
X9834004Y-15530089D01*
X10129243Y-15768184D02*
X10119719Y-15758661D01*
X10100671Y-15730089D01*
X10091147Y-15711042D01*
X10081624Y-15682470D01*
X10072100Y-15634851D01*
X10072100Y-15596756D01*
X10081624Y-15549137D01*
X10091147Y-15520565D01*
X10100671Y-15501518D01*
X10119719Y-15472946D01*
X10129243Y-15463423D01*
X10195909Y-15511042D02*
X10205433Y-15501518D01*
X10224481Y-15491994D01*
X10272100Y-15491994D01*
X10291147Y-15501518D01*
X10300671Y-15511042D01*
X10310195Y-15530089D01*
X10310195Y-15549137D01*
X10300671Y-15577708D01*
X10186385Y-15691994D01*
X10310195Y-15691994D01*
X10548290Y-15691994D02*
X10548290Y-15491994D01*
X10634004Y-15691994D02*
X10634004Y-15587232D01*
X10624481Y-15568184D01*
X10605433Y-15558661D01*
X10576862Y-15558661D01*
X10557814Y-15568184D01*
X10548290Y-15577708D01*
X10757814Y-15691994D02*
X10738766Y-15682470D01*
X10729243Y-15672946D01*
X10719719Y-15653899D01*
X10719719Y-15596756D01*
X10729243Y-15577708D01*
X10738766Y-15568184D01*
X10757814Y-15558661D01*
X10786385Y-15558661D01*
X10805433Y-15568184D01*
X10814957Y-15577708D01*
X10824481Y-15596756D01*
X10824481Y-15653899D01*
X10814957Y-15672946D01*
X10805433Y-15682470D01*
X10786385Y-15691994D01*
X10757814Y-15691994D01*
X10938766Y-15691994D02*
X10919719Y-15682470D01*
X10910195Y-15663423D01*
X10910195Y-15491994D01*
X11091147Y-15682470D02*
X11072100Y-15691994D01*
X11034004Y-15691994D01*
X11014957Y-15682470D01*
X11005433Y-15663423D01*
X11005433Y-15587232D01*
X11014957Y-15568184D01*
X11034004Y-15558661D01*
X11072100Y-15558661D01*
X11091147Y-15568184D01*
X11100671Y-15587232D01*
X11100671Y-15606280D01*
X11005433Y-15625327D01*
X11176862Y-15682470D02*
X11195909Y-15691994D01*
X11234004Y-15691994D01*
X11253052Y-15682470D01*
X11262576Y-15663423D01*
X11262576Y-15653899D01*
X11253052Y-15634851D01*
X11234004Y-15625327D01*
X11205433Y-15625327D01*
X11186385Y-15615804D01*
X11176862Y-15596756D01*
X11176862Y-15587232D01*
X11186385Y-15568184D01*
X11205433Y-15558661D01*
X11234004Y-15558661D01*
X11253052Y-15568184D01*
X11329242Y-15768184D02*
X11338766Y-15758661D01*
X11357814Y-15730089D01*
X11367338Y-15711042D01*
X11376862Y-15682470D01*
X11386385Y-15634851D01*
X11386385Y-15596756D01*
X11376862Y-15549137D01*
X11367338Y-15520565D01*
X11357814Y-15501518D01*
X11338766Y-15472946D01*
X11329242Y-15463423D01*
M02*
