G04 #@! TF.GenerationSoftware,KiCad,Pcbnew,(6.0.10)*
G04 #@! TF.CreationDate,2024-03-15T22:27:51-04:00*
G04 #@! TF.ProjectId,RL2D,524c3244-2e6b-4696-9361-645f70636258,v0.6*
G04 #@! TF.SameCoordinates,Original*
G04 #@! TF.FileFunction,Profile,NP*
%FSLAX46Y46*%
G04 Gerber Fmt 4.6, Leading zero omitted, Abs format (unit mm)*
G04 Created by KiCad (PCBNEW (6.0.10)) date 2024-03-15 22:27:51*
%MOMM*%
%LPD*%
G01*
G04 APERTURE LIST*
%ADD10C,0.200000*%
G04 APERTURE END LIST*
D10*
X65690911Y-119389747D02*
X65690205Y-119099669D01*
X65691367Y-118808497D01*
X65694386Y-118516205D01*
X65699251Y-118222767D01*
X65705950Y-117928158D01*
X65714472Y-117632352D01*
X65724806Y-117335323D01*
X65736940Y-117037047D01*
X65750863Y-116737497D01*
X65766564Y-116436648D01*
X65784032Y-116134475D01*
X65803254Y-115830951D01*
X65824221Y-115526051D01*
X65846920Y-115219750D01*
X65871340Y-114912022D01*
X65897470Y-114602842D01*
X65925299Y-114292183D01*
X65954815Y-113980021D01*
X65986007Y-113666330D01*
X66018864Y-113351083D01*
X66053374Y-113034257D01*
X66089527Y-112715824D01*
X66127310Y-112395760D01*
X66166712Y-112074039D01*
X66207723Y-111750635D01*
X66250331Y-111425522D01*
X66294524Y-111098676D01*
X66340292Y-110770071D01*
X66387623Y-110439681D01*
X66436505Y-110107480D01*
X66486928Y-109773443D01*
X66538880Y-109437545D01*
X113946240Y-110661636D02*
X113745598Y-110725500D01*
X113547259Y-110792184D01*
X113351077Y-110861729D01*
X113156908Y-110934176D01*
X112964605Y-111009568D01*
X112774023Y-111087946D01*
X112585018Y-111169352D01*
X112397443Y-111253828D01*
X112211154Y-111341415D01*
X112026005Y-111432157D01*
X111841850Y-111526094D01*
X111658545Y-111623268D01*
X111475944Y-111723722D01*
X111293902Y-111827496D01*
X111112273Y-111934634D01*
X110930912Y-112045176D01*
X110749674Y-112159165D01*
X110568413Y-112276642D01*
X110386984Y-112397649D01*
X110205242Y-112522229D01*
X110023041Y-112650422D01*
X109840236Y-112782271D01*
X109656682Y-112917818D01*
X109472234Y-113057104D01*
X109286745Y-113200171D01*
X109100071Y-113347062D01*
X108912067Y-113497818D01*
X108722586Y-113652480D01*
X108531485Y-113811091D01*
X108338616Y-113973693D01*
X108143836Y-114140326D01*
X107946999Y-114311035D01*
X199164277Y-40224188D02*
X198880687Y-40057087D01*
X198591209Y-39889910D01*
X198295756Y-39722799D01*
X197994244Y-39555893D01*
X197686587Y-39389335D01*
X197372700Y-39223265D01*
X197052498Y-39057824D01*
X196725896Y-38893154D01*
X196392809Y-38729395D01*
X196053151Y-38566688D01*
X195706837Y-38405174D01*
X195353782Y-38244995D01*
X194993901Y-38086292D01*
X194627108Y-37929204D01*
X194253319Y-37773875D01*
X193872448Y-37620444D01*
X193484410Y-37469052D01*
X193089120Y-37319841D01*
X192686493Y-37172951D01*
X192276443Y-37028524D01*
X191858886Y-36886701D01*
X191433735Y-36747623D01*
X191000907Y-36611430D01*
X190560315Y-36478264D01*
X190111874Y-36348266D01*
X189655500Y-36221576D01*
X189191107Y-36098337D01*
X188718611Y-35978688D01*
X188237924Y-35862771D01*
X187748964Y-35750727D01*
X187251644Y-35642697D01*
X186745879Y-35538823D01*
X184862725Y-114311035D02*
X185141509Y-114556508D01*
X185424319Y-114809665D01*
X185710875Y-115070142D01*
X186000898Y-115337579D01*
X186294108Y-115611613D01*
X186590226Y-115891884D01*
X186888972Y-116178030D01*
X187190068Y-116469689D01*
X187493234Y-116766500D01*
X187798191Y-117068102D01*
X188104659Y-117374132D01*
X188412359Y-117684229D01*
X188721012Y-117998032D01*
X189030338Y-118315179D01*
X189340059Y-118635309D01*
X189649894Y-118958060D01*
X189959564Y-119283070D01*
X190268791Y-119609979D01*
X190577294Y-119938424D01*
X190884795Y-120268044D01*
X191191014Y-120598477D01*
X191495671Y-120929363D01*
X191798488Y-121260338D01*
X192099185Y-121591043D01*
X192397483Y-121921115D01*
X192693102Y-122250193D01*
X192985764Y-122577915D01*
X193275188Y-122903919D01*
X193561096Y-123227845D01*
X193843208Y-123549331D01*
X194121244Y-123868015D01*
X194394927Y-124183536D01*
X225874428Y-127846145D02*
X225960430Y-127574975D01*
X226042711Y-127304900D01*
X226121339Y-127035853D01*
X226196382Y-126767769D01*
X226267908Y-126500585D01*
X226335985Y-126234235D01*
X226400682Y-125968655D01*
X226462067Y-125703779D01*
X226520208Y-125439543D01*
X226575172Y-125175882D01*
X226627029Y-124912732D01*
X226675846Y-124650027D01*
X226721691Y-124387703D01*
X226764633Y-124125695D01*
X226804740Y-123863939D01*
X226842080Y-123602368D01*
X226876721Y-123340920D01*
X226908731Y-123079528D01*
X226938179Y-122818129D01*
X226965132Y-122556657D01*
X226989659Y-122295047D01*
X227011827Y-122033236D01*
X227031706Y-121771157D01*
X227049363Y-121508747D01*
X227064866Y-121245940D01*
X227078284Y-120982671D01*
X227089685Y-120718877D01*
X227099136Y-120454492D01*
X227106706Y-120189451D01*
X227112464Y-119923690D01*
X227116476Y-119657143D01*
X227118813Y-119389747D01*
X138293780Y-109697088D02*
X137875170Y-109695248D01*
X137448273Y-109693219D01*
X137013576Y-109691030D01*
X136571561Y-109688713D01*
X136122715Y-109686298D01*
X135667521Y-109683817D01*
X135206466Y-109681300D01*
X134740033Y-109678779D01*
X134268707Y-109676283D01*
X133792974Y-109673844D01*
X133313318Y-109671494D01*
X132830225Y-109669261D01*
X132344178Y-109667179D01*
X131855662Y-109665276D01*
X131365164Y-109663586D01*
X130873167Y-109662137D01*
X130380155Y-109660961D01*
X129886616Y-109660089D01*
X129393032Y-109659552D01*
X128899888Y-109659381D01*
X128407671Y-109659606D01*
X127916864Y-109660259D01*
X127427952Y-109661370D01*
X126941420Y-109662970D01*
X126457753Y-109665090D01*
X125977436Y-109667762D01*
X125500954Y-109671015D01*
X125028791Y-109674880D01*
X124561433Y-109679390D01*
X124099364Y-109684573D01*
X123643069Y-109690462D01*
X123193033Y-109697088D01*
X214542507Y-140812413D02*
X214919523Y-140682122D01*
X215110108Y-140611485D01*
X215301929Y-140537158D01*
X215494876Y-140459121D01*
X215688840Y-140377351D01*
X215883710Y-140291828D01*
X216079375Y-140202529D01*
X216275726Y-140109432D01*
X216472651Y-140012518D01*
X216670041Y-139911764D01*
X216867785Y-139807148D01*
X217065773Y-139698649D01*
X217263895Y-139586246D01*
X217462040Y-139469918D01*
X217660098Y-139349642D01*
X217857958Y-139225397D01*
X218055511Y-139097162D01*
X218252646Y-138964915D01*
X218449253Y-138828635D01*
X218645221Y-138688300D01*
X218840440Y-138543889D01*
X219034799Y-138395380D01*
X219228190Y-138242753D01*
X219420500Y-138085984D01*
X219611620Y-137925054D01*
X219801439Y-137759940D01*
X219989848Y-137590621D01*
X220176735Y-137417075D01*
X220361991Y-137239281D01*
X220545505Y-137057218D01*
X220727167Y-136870864D01*
X220727167Y-136870864D02*
X220940839Y-136643483D01*
X221151674Y-136410227D01*
X221359615Y-136171333D01*
X221564605Y-135927033D01*
X221766587Y-135677565D01*
X221965503Y-135423161D01*
X222161296Y-135164058D01*
X222353910Y-134900490D01*
X222543287Y-134632692D01*
X222729371Y-134360899D01*
X222912104Y-134085346D01*
X223091429Y-133806267D01*
X223267290Y-133523898D01*
X223439628Y-133238474D01*
X223608388Y-132950229D01*
X223773511Y-132659398D01*
X223934942Y-132366217D01*
X224092622Y-132070920D01*
X224246495Y-131773742D01*
X224396504Y-131474918D01*
X224542591Y-131174683D01*
X224684700Y-130873271D01*
X224822774Y-130570919D01*
X224956755Y-130267860D01*
X225086587Y-129964329D01*
X225212212Y-129660562D01*
X225333573Y-129356793D01*
X225450614Y-129053257D01*
X225563277Y-128750190D01*
X225671504Y-128447825D01*
X225775240Y-128146398D01*
X225874428Y-127846145D01*
X123193033Y-109697088D02*
X122844569Y-109702836D01*
X122500228Y-109709156D01*
X122159983Y-109716149D01*
X121823804Y-109723915D01*
X121491663Y-109732553D01*
X121163532Y-109742165D01*
X120839382Y-109752849D01*
X120519184Y-109764707D01*
X120202911Y-109777838D01*
X119890533Y-109792343D01*
X119582022Y-109808322D01*
X119277351Y-109825874D01*
X118976490Y-109845100D01*
X118679410Y-109866100D01*
X118386084Y-109888975D01*
X118096483Y-109913824D01*
X117810579Y-109940747D01*
X117528342Y-109969845D01*
X117249745Y-110001218D01*
X116974760Y-110034966D01*
X116703356Y-110071189D01*
X116435508Y-110109987D01*
X116171184Y-110151460D01*
X115910359Y-110195709D01*
X115653002Y-110242834D01*
X115399085Y-110292934D01*
X115148580Y-110346110D01*
X114901459Y-110402463D01*
X114657693Y-110462091D01*
X114417253Y-110525096D01*
X114180112Y-110591577D01*
X113946240Y-110661636D01*
X91785822Y-131995276D02*
X91547835Y-132260000D01*
X91307442Y-132525160D01*
X91064562Y-132790941D01*
X90819112Y-133057526D01*
X90571011Y-133325098D01*
X90320177Y-133593843D01*
X90066530Y-133863944D01*
X89809986Y-134135584D01*
X89550465Y-134408948D01*
X89287885Y-134684220D01*
X89022165Y-134961584D01*
X88753222Y-135241223D01*
X88480976Y-135523322D01*
X88205344Y-135808064D01*
X87926245Y-136095634D01*
X87643598Y-136386215D01*
X87357320Y-136679992D01*
X87067331Y-136977148D01*
X86773548Y-137277868D01*
X86475890Y-137582334D01*
X86174276Y-137890732D01*
X85868623Y-138203245D01*
X85558851Y-138520057D01*
X85244877Y-138841352D01*
X84926620Y-139167315D01*
X84603999Y-139498128D01*
X84276931Y-139833976D01*
X83945336Y-140175043D01*
X83609131Y-140521513D01*
X83268235Y-140873569D01*
X82922566Y-141231397D01*
X82572044Y-141595179D01*
X216609724Y-73660000D02*
X216297622Y-72745473D01*
X215979668Y-71819541D01*
X215656182Y-70883712D01*
X215327483Y-69939493D01*
X214993891Y-68988393D01*
X214655726Y-68031918D01*
X214313307Y-67071578D01*
X213966953Y-66108878D01*
X213616984Y-65145328D01*
X213263720Y-64182435D01*
X212907480Y-63221707D01*
X212548583Y-62264652D01*
X212187350Y-61312776D01*
X211824100Y-60367589D01*
X211459152Y-59430598D01*
X211092827Y-58503310D01*
X210725442Y-57587234D01*
X210357319Y-56683876D01*
X209988776Y-55794746D01*
X209620134Y-54921350D01*
X209251711Y-54065196D01*
X208883827Y-53227793D01*
X208516802Y-52410648D01*
X208150956Y-51615268D01*
X207786607Y-50843162D01*
X207424076Y-50095837D01*
X207063681Y-49374801D01*
X206705744Y-48681561D01*
X206350582Y-48017627D01*
X205998516Y-47384504D01*
X205649865Y-46783701D01*
X205304950Y-46216727D01*
X82572044Y-141595179D02*
X82312738Y-141569150D01*
X82053235Y-141542598D01*
X81793300Y-141514979D01*
X81532695Y-141485752D01*
X81271185Y-141454376D01*
X81008533Y-141420308D01*
X80744502Y-141383008D01*
X80478858Y-141341932D01*
X80211362Y-141296539D01*
X79941779Y-141246288D01*
X79669872Y-141190636D01*
X79395406Y-141129043D01*
X79118144Y-141060965D01*
X78837849Y-140985862D01*
X78554285Y-140903192D01*
X78267217Y-140812413D01*
X159035650Y-33948694D02*
X158473486Y-33949750D01*
X157917102Y-33950936D01*
X157367000Y-33952243D01*
X156823683Y-33953662D01*
X156287652Y-33955183D01*
X155759411Y-33956798D01*
X155239462Y-33958499D01*
X154728306Y-33960275D01*
X154226447Y-33962119D01*
X153734386Y-33964021D01*
X153252627Y-33965973D01*
X152781670Y-33967965D01*
X152322020Y-33969988D01*
X151874177Y-33972035D01*
X151438645Y-33974095D01*
X151015926Y-33976160D01*
X150606521Y-33978222D01*
X150210934Y-33980270D01*
X149829667Y-33982297D01*
X149463222Y-33984293D01*
X149112101Y-33986249D01*
X148776808Y-33988157D01*
X148457843Y-33990008D01*
X148155710Y-33991793D01*
X147870911Y-33993502D01*
X147603948Y-33995128D01*
X147355323Y-33996660D01*
X147125540Y-33998091D01*
X146915099Y-33999411D01*
X146554258Y-34001683D01*
X146404862Y-34002618D01*
X93645447Y-40224188D02*
X93929036Y-40057087D01*
X94218514Y-39889910D01*
X94513967Y-39722799D01*
X94815479Y-39555893D01*
X95123136Y-39389335D01*
X95437023Y-39223265D01*
X95757225Y-39057824D01*
X96083827Y-38893154D01*
X96416914Y-38729395D01*
X96756572Y-38566688D01*
X97102886Y-38405174D01*
X97455941Y-38244995D01*
X97815822Y-38086292D01*
X98182615Y-37929204D01*
X98556404Y-37773875D01*
X98937275Y-37620444D01*
X99325313Y-37469052D01*
X99720603Y-37319841D01*
X100123230Y-37172951D01*
X100533280Y-37028524D01*
X100950837Y-36886701D01*
X101375988Y-36747623D01*
X101808816Y-36611430D01*
X102249408Y-36478264D01*
X102697849Y-36348266D01*
X103154223Y-36221576D01*
X103618616Y-36098337D01*
X104091112Y-35978688D01*
X104571799Y-35862771D01*
X105060759Y-35750727D01*
X105558079Y-35642697D01*
X106063845Y-35538823D01*
X78267217Y-140812413D02*
X77890200Y-140682122D01*
X77699615Y-140611485D01*
X77507794Y-140537158D01*
X77314847Y-140459121D01*
X77120883Y-140377351D01*
X76926013Y-140291828D01*
X76730348Y-140202529D01*
X76533997Y-140109432D01*
X76337072Y-140012518D01*
X76139682Y-139911764D01*
X75941938Y-139807148D01*
X75743950Y-139698649D01*
X75545828Y-139586246D01*
X75347683Y-139469918D01*
X75149625Y-139349642D01*
X74951765Y-139225397D01*
X74754212Y-139097162D01*
X74557077Y-138964915D01*
X74360470Y-138828635D01*
X74164502Y-138688300D01*
X73969283Y-138543889D01*
X73774924Y-138395380D01*
X73581533Y-138242753D01*
X73389223Y-138085984D01*
X73198103Y-137925054D01*
X73008284Y-137759940D01*
X72819875Y-137590621D01*
X72632988Y-137417075D01*
X72447732Y-137239281D01*
X72264218Y-137057218D01*
X72082557Y-136870864D01*
X98414797Y-124183536D02*
X98181988Y-124453386D01*
X97952476Y-124720693D01*
X97726094Y-124985545D01*
X97502681Y-125248030D01*
X97282070Y-125508237D01*
X97064099Y-125766254D01*
X96848602Y-126022170D01*
X96635417Y-126276071D01*
X96424379Y-126528048D01*
X96215325Y-126778188D01*
X96008089Y-127026579D01*
X95802508Y-127273310D01*
X95598419Y-127518470D01*
X95395656Y-127762145D01*
X95194056Y-128004425D01*
X94993455Y-128245399D01*
X94793688Y-128485153D01*
X94594593Y-128723778D01*
X94396004Y-128961360D01*
X94197758Y-129197988D01*
X93999690Y-129433751D01*
X93801637Y-129668736D01*
X93603435Y-129903033D01*
X93404919Y-130136730D01*
X93205926Y-130369913D01*
X93006291Y-130602673D01*
X92805850Y-130835098D01*
X92604440Y-131067275D01*
X92401896Y-131299293D01*
X92198054Y-131531240D01*
X91992751Y-131763205D01*
X91785822Y-131995276D01*
X146404862Y-109697088D02*
X146176332Y-109697729D01*
X145947671Y-109698366D01*
X145718730Y-109698995D01*
X145489361Y-109699612D01*
X145259418Y-109700213D01*
X145028751Y-109700795D01*
X144797214Y-109701354D01*
X144564659Y-109701886D01*
X144330938Y-109702388D01*
X144095903Y-109702856D01*
X143859407Y-109703286D01*
X143621301Y-109703675D01*
X143381439Y-109704018D01*
X143139672Y-109704313D01*
X142895853Y-109704556D01*
X142649834Y-109704742D01*
X142401466Y-109704869D01*
X142150604Y-109704932D01*
X141897098Y-109704927D01*
X141640802Y-109704852D01*
X141381566Y-109704703D01*
X141119245Y-109704475D01*
X140853689Y-109704166D01*
X140584751Y-109703771D01*
X140312284Y-109703286D01*
X140036140Y-109702709D01*
X139756171Y-109702035D01*
X139472229Y-109701261D01*
X139184166Y-109700383D01*
X138891836Y-109699397D01*
X138595089Y-109698300D01*
X138293780Y-109697088D01*
X87504774Y-46216727D02*
X87688601Y-45926302D01*
X87871410Y-45645769D01*
X88053355Y-45374804D01*
X88234589Y-45113083D01*
X88415267Y-44860282D01*
X88595542Y-44616078D01*
X88775568Y-44380148D01*
X88955500Y-44152167D01*
X89135490Y-43931813D01*
X89315693Y-43718760D01*
X89496263Y-43512687D01*
X89677354Y-43313269D01*
X89859119Y-43120183D01*
X90041712Y-42933105D01*
X90225288Y-42751712D01*
X90409999Y-42575679D01*
X90596000Y-42404684D01*
X90783446Y-42238402D01*
X90972489Y-42076511D01*
X91163283Y-41918686D01*
X91355983Y-41764604D01*
X91550742Y-41613941D01*
X91747714Y-41466375D01*
X91947054Y-41321580D01*
X92148914Y-41179234D01*
X92353449Y-41039012D01*
X92560813Y-40900593D01*
X92771159Y-40763650D01*
X92984642Y-40627862D01*
X93201414Y-40492905D01*
X93421631Y-40358455D01*
X93645447Y-40224188D01*
X226270844Y-109437545D02*
X226206091Y-109029453D01*
X226139146Y-108618644D01*
X226070026Y-108205152D01*
X225998752Y-107789011D01*
X225925342Y-107370256D01*
X225849816Y-106948920D01*
X225772194Y-106525039D01*
X225692495Y-106098646D01*
X225610737Y-105669775D01*
X225526942Y-105238461D01*
X225441127Y-104804739D01*
X225353312Y-104368642D01*
X225263517Y-103930204D01*
X225171761Y-103489460D01*
X225078064Y-103046445D01*
X224982445Y-102601192D01*
X224884922Y-102153735D01*
X224785517Y-101704110D01*
X224684247Y-101252349D01*
X224581132Y-100798489D01*
X224476193Y-100342562D01*
X224369447Y-99884603D01*
X224260915Y-99424646D01*
X224150616Y-98962726D01*
X224038569Y-98498877D01*
X223924793Y-98033133D01*
X223809309Y-97565528D01*
X223692135Y-97096097D01*
X223573291Y-96624873D01*
X223452796Y-96151892D01*
X223330669Y-95677188D01*
X223206931Y-95200794D01*
X107946999Y-114311035D02*
X107668214Y-114556508D01*
X107385404Y-114809665D01*
X107098848Y-115070142D01*
X106808825Y-115337579D01*
X106515615Y-115611613D01*
X106219497Y-115891884D01*
X105920751Y-116178030D01*
X105619655Y-116469689D01*
X105316489Y-116766500D01*
X105011532Y-117068102D01*
X104705064Y-117374132D01*
X104397364Y-117684229D01*
X104088711Y-117998032D01*
X103779385Y-118315179D01*
X103469664Y-118635309D01*
X103159829Y-118958060D01*
X102850159Y-119283070D01*
X102540932Y-119609979D01*
X102232429Y-119938424D01*
X101924928Y-120268044D01*
X101618709Y-120598477D01*
X101314052Y-120929363D01*
X101011235Y-121260338D01*
X100710538Y-121591043D01*
X100412240Y-121921115D01*
X100116621Y-122250193D01*
X99823959Y-122577915D01*
X99534535Y-122903919D01*
X99248627Y-123227845D01*
X98966515Y-123549331D01*
X98688479Y-123868015D01*
X98414797Y-124183536D01*
X69602793Y-95200794D02*
X69758934Y-94605909D01*
X69917610Y-94008238D01*
X70078887Y-93407555D01*
X70242837Y-92803632D01*
X70409529Y-92196244D01*
X70579031Y-91585164D01*
X70751413Y-90970166D01*
X70926746Y-90351023D01*
X71105097Y-89727510D01*
X71286536Y-89099401D01*
X71471133Y-88466468D01*
X71658958Y-87828485D01*
X71850079Y-87185228D01*
X72044565Y-86536468D01*
X72242488Y-85881980D01*
X72443914Y-85221537D01*
X72648915Y-84554914D01*
X72857560Y-83881883D01*
X73069917Y-83202219D01*
X73286056Y-82515696D01*
X73506047Y-81822087D01*
X73729959Y-81121165D01*
X73957862Y-80412705D01*
X74189824Y-79696481D01*
X74425915Y-78972265D01*
X74666205Y-78239832D01*
X74910763Y-77498955D01*
X75159658Y-76749409D01*
X75412960Y-75990967D01*
X75670738Y-75223402D01*
X75933061Y-74446488D01*
X76200000Y-73660000D01*
X66538880Y-109437545D02*
X66603632Y-109029453D01*
X66670577Y-108618644D01*
X66739697Y-108205152D01*
X66810971Y-107789011D01*
X66884381Y-107370256D01*
X66959907Y-106948920D01*
X67037529Y-106525039D01*
X67117228Y-106098646D01*
X67198986Y-105669775D01*
X67282781Y-105238461D01*
X67368596Y-104804739D01*
X67456411Y-104368642D01*
X67546206Y-103930204D01*
X67637962Y-103489460D01*
X67731659Y-103046445D01*
X67827278Y-102601192D01*
X67924801Y-102153735D01*
X68024206Y-101704110D01*
X68125476Y-101252349D01*
X68228591Y-100798489D01*
X68333530Y-100342562D01*
X68440276Y-99884603D01*
X68548808Y-99424646D01*
X68659107Y-98962726D01*
X68771154Y-98498877D01*
X68884930Y-98033133D01*
X69000414Y-97565528D01*
X69117588Y-97096097D01*
X69236432Y-96624873D01*
X69356927Y-96151892D01*
X69479054Y-95677188D01*
X69602793Y-95200794D01*
X205304950Y-46216727D02*
X205121122Y-45926302D01*
X204938313Y-45645769D01*
X204756368Y-45374804D01*
X204575134Y-45113083D01*
X204394456Y-44860282D01*
X204214181Y-44616078D01*
X204034155Y-44380148D01*
X203854223Y-44152167D01*
X203674233Y-43931813D01*
X203494030Y-43718760D01*
X203313460Y-43512687D01*
X203132369Y-43313269D01*
X202950604Y-43120183D01*
X202768011Y-42933105D01*
X202584435Y-42751712D01*
X202399724Y-42575679D01*
X202213723Y-42404684D01*
X202026277Y-42238402D01*
X201837234Y-42076511D01*
X201646440Y-41918686D01*
X201453740Y-41764604D01*
X201258981Y-41613941D01*
X201062009Y-41466375D01*
X200862669Y-41321580D01*
X200660809Y-41179234D01*
X200456274Y-41039012D01*
X200248910Y-40900593D01*
X200038564Y-40763650D01*
X199825081Y-40627862D01*
X199608309Y-40492905D01*
X199388092Y-40358455D01*
X199164277Y-40224188D01*
X201023902Y-131995276D02*
X201261888Y-132260000D01*
X201502281Y-132525160D01*
X201745161Y-132790941D01*
X201990611Y-133057526D01*
X202238712Y-133325098D01*
X202489546Y-133593843D01*
X202743193Y-133863944D01*
X202999737Y-134135584D01*
X203259258Y-134408948D01*
X203521838Y-134684220D01*
X203787558Y-134961584D01*
X204056501Y-135241223D01*
X204328747Y-135523322D01*
X204604379Y-135808064D01*
X204883478Y-136095634D01*
X205166125Y-136386215D01*
X205452403Y-136679992D01*
X205742392Y-136977148D01*
X206036175Y-137277868D01*
X206333833Y-137582334D01*
X206635447Y-137890732D01*
X206941100Y-138203245D01*
X207250872Y-138520057D01*
X207564846Y-138841352D01*
X207883103Y-139167315D01*
X208205724Y-139498128D01*
X208532792Y-139833976D01*
X208864387Y-140175043D01*
X209200592Y-140521513D01*
X209541488Y-140873569D01*
X209887157Y-141231397D01*
X210237680Y-141595179D01*
X72082557Y-136870864D02*
X71868884Y-136643483D01*
X71658049Y-136410227D01*
X71450108Y-136171333D01*
X71245118Y-135927033D01*
X71043136Y-135677565D01*
X70844220Y-135423161D01*
X70648427Y-135164058D01*
X70455813Y-134900490D01*
X70266436Y-134632692D01*
X70080352Y-134360899D01*
X69897619Y-134085346D01*
X69718294Y-133806267D01*
X69542433Y-133523898D01*
X69370095Y-133238474D01*
X69201335Y-132950229D01*
X69036212Y-132659398D01*
X68874781Y-132366217D01*
X68717101Y-132070920D01*
X68563228Y-131773742D01*
X68413219Y-131474918D01*
X68267132Y-131174683D01*
X68125023Y-130873271D01*
X67986949Y-130570919D01*
X67852968Y-130267860D01*
X67723136Y-129964329D01*
X67597511Y-129660562D01*
X67476150Y-129356793D01*
X67359109Y-129053257D01*
X67246446Y-128750190D01*
X67138219Y-128447825D01*
X67034483Y-128146398D01*
X66935296Y-127846145D01*
X76200000Y-73660000D02*
X76512101Y-72745473D01*
X76830055Y-71819541D01*
X77153541Y-70883712D01*
X77482240Y-69939493D01*
X77815832Y-68988393D01*
X78153997Y-68031918D01*
X78496416Y-67071578D01*
X78842770Y-66108878D01*
X79192739Y-65145328D01*
X79546003Y-64182435D01*
X79902243Y-63221707D01*
X80261140Y-62264652D01*
X80622373Y-61312776D01*
X80985623Y-60367589D01*
X81350571Y-59430598D01*
X81716896Y-58503310D01*
X82084281Y-57587234D01*
X82452404Y-56683876D01*
X82820947Y-55794746D01*
X83189589Y-54921350D01*
X83558012Y-54065196D01*
X83925896Y-53227793D01*
X84292921Y-52410648D01*
X84658767Y-51615268D01*
X85023116Y-50843162D01*
X85385647Y-50095837D01*
X85746042Y-49374801D01*
X86103979Y-48681561D01*
X86459141Y-48017627D01*
X86811207Y-47384504D01*
X87159858Y-46783701D01*
X87504774Y-46216727D01*
X210237680Y-141595179D02*
X210496985Y-141569150D01*
X210756488Y-141542598D01*
X211016423Y-141514979D01*
X211277028Y-141485752D01*
X211538538Y-141454376D01*
X211801190Y-141420308D01*
X212065221Y-141383008D01*
X212330866Y-141341932D01*
X212598361Y-141296539D01*
X212867944Y-141246288D01*
X213139851Y-141190636D01*
X213414317Y-141129043D01*
X213691579Y-141060965D01*
X213971874Y-140985862D01*
X214255438Y-140903192D01*
X214542507Y-140812413D01*
X223206931Y-95200794D02*
X223050789Y-94605909D01*
X222892113Y-94008238D01*
X222730836Y-93407555D01*
X222566886Y-92803632D01*
X222400194Y-92196244D01*
X222230692Y-91585164D01*
X222058310Y-90970166D01*
X221882977Y-90351023D01*
X221704626Y-89727510D01*
X221523187Y-89099401D01*
X221338590Y-88466468D01*
X221150765Y-87828485D01*
X220959644Y-87185228D01*
X220765158Y-86536468D01*
X220567235Y-85881980D01*
X220365809Y-85221537D01*
X220160808Y-84554914D01*
X219952163Y-83881883D01*
X219739806Y-83202219D01*
X219523667Y-82515696D01*
X219303676Y-81822087D01*
X219079764Y-81121165D01*
X218851861Y-80412705D01*
X218619899Y-79696481D01*
X218383808Y-78972265D01*
X218143518Y-78239832D01*
X217898960Y-77498955D01*
X217650065Y-76749409D01*
X217396763Y-75990967D01*
X217138985Y-75223402D01*
X216876662Y-74446488D01*
X216609724Y-73660000D01*
X169616691Y-109697088D02*
X169965154Y-109702836D01*
X170309495Y-109709156D01*
X170649740Y-109716149D01*
X170985919Y-109723915D01*
X171318060Y-109732553D01*
X171646191Y-109742165D01*
X171970341Y-109752849D01*
X172290539Y-109764707D01*
X172606812Y-109777838D01*
X172919190Y-109792343D01*
X173227701Y-109808322D01*
X173532372Y-109825874D01*
X173833233Y-109845100D01*
X174130313Y-109866100D01*
X174423639Y-109888975D01*
X174713240Y-109913824D01*
X174999144Y-109940747D01*
X175281381Y-109969845D01*
X175559978Y-110001218D01*
X175834963Y-110034966D01*
X176106367Y-110071189D01*
X176374215Y-110109987D01*
X176638539Y-110151460D01*
X176899364Y-110195709D01*
X177156721Y-110242834D01*
X177410638Y-110292934D01*
X177661143Y-110346110D01*
X177908264Y-110402463D01*
X178152030Y-110462091D01*
X178392470Y-110525096D01*
X178629611Y-110591577D01*
X178863484Y-110661636D01*
X133774074Y-33948694D02*
X134336237Y-33949750D01*
X134892621Y-33950936D01*
X135442723Y-33952243D01*
X135986040Y-33953662D01*
X136522071Y-33955183D01*
X137050312Y-33956798D01*
X137570261Y-33958499D01*
X138081417Y-33960275D01*
X138583276Y-33962119D01*
X139075337Y-33964021D01*
X139557096Y-33965973D01*
X140028053Y-33967965D01*
X140487703Y-33969988D01*
X140935546Y-33972035D01*
X141371078Y-33974095D01*
X141793798Y-33976160D01*
X142203202Y-33978222D01*
X142598789Y-33980270D01*
X142980056Y-33982297D01*
X143346501Y-33984293D01*
X143697622Y-33986249D01*
X144032915Y-33988157D01*
X144351880Y-33990008D01*
X144654013Y-33991793D01*
X144938812Y-33993502D01*
X145205775Y-33995128D01*
X145454400Y-33996660D01*
X145684183Y-33998091D01*
X145894624Y-33999411D01*
X146255465Y-34001683D01*
X146404862Y-34002618D01*
X146404862Y-109697088D02*
X146633391Y-109697729D01*
X146862052Y-109698366D01*
X147090993Y-109698995D01*
X147320362Y-109699612D01*
X147550305Y-109700213D01*
X147780972Y-109700795D01*
X148012509Y-109701354D01*
X148245064Y-109701886D01*
X148478785Y-109702388D01*
X148713820Y-109702856D01*
X148950316Y-109703286D01*
X149188422Y-109703675D01*
X149428284Y-109704018D01*
X149670051Y-109704313D01*
X149913870Y-109704556D01*
X150159890Y-109704742D01*
X150408257Y-109704869D01*
X150659119Y-109704932D01*
X150912625Y-109704927D01*
X151168921Y-109704852D01*
X151428157Y-109704703D01*
X151690478Y-109704475D01*
X151956034Y-109704166D01*
X152224972Y-109703771D01*
X152497439Y-109703286D01*
X152773583Y-109702709D01*
X153053552Y-109702035D01*
X153337494Y-109701261D01*
X153625557Y-109700383D01*
X153917887Y-109699397D01*
X154214634Y-109698300D01*
X154515944Y-109697088D01*
X66935296Y-127846145D02*
X66849293Y-127574975D01*
X66767012Y-127304900D01*
X66688384Y-127035853D01*
X66613341Y-126767769D01*
X66541815Y-126500585D01*
X66473738Y-126234235D01*
X66409041Y-125968655D01*
X66347656Y-125703779D01*
X66289515Y-125439543D01*
X66234551Y-125175882D01*
X66182694Y-124912732D01*
X66133877Y-124650027D01*
X66088032Y-124387703D01*
X66045090Y-124125695D01*
X66004983Y-123863939D01*
X65967643Y-123602368D01*
X65933002Y-123340920D01*
X65900992Y-123079528D01*
X65871544Y-122818129D01*
X65844591Y-122556657D01*
X65820064Y-122295047D01*
X65797896Y-122033236D01*
X65778017Y-121771157D01*
X65760360Y-121508747D01*
X65744857Y-121245940D01*
X65731439Y-120982671D01*
X65720038Y-120718877D01*
X65710587Y-120454492D01*
X65703017Y-120189451D01*
X65697259Y-119923690D01*
X65693247Y-119657143D01*
X65690911Y-119389747D01*
X186745879Y-35538823D02*
X185999586Y-35396129D01*
X185236375Y-35262149D01*
X184457166Y-35136609D01*
X183662880Y-35019239D01*
X182854434Y-34909769D01*
X182032751Y-34807925D01*
X181198748Y-34713438D01*
X180353347Y-34626036D01*
X179497467Y-34545448D01*
X178632028Y-34471403D01*
X177757950Y-34403629D01*
X176876152Y-34341855D01*
X175987554Y-34285809D01*
X175093076Y-34235222D01*
X174193639Y-34189821D01*
X173290162Y-34149335D01*
X172383564Y-34113493D01*
X171474765Y-34082023D01*
X170564686Y-34054655D01*
X169654247Y-34031118D01*
X168744366Y-34011139D01*
X167835964Y-33994448D01*
X166929961Y-33980774D01*
X166027277Y-33969844D01*
X165128831Y-33961389D01*
X164235543Y-33955137D01*
X163348333Y-33950816D01*
X162468121Y-33948156D01*
X161595827Y-33946885D01*
X160732371Y-33946732D01*
X159878671Y-33947425D01*
X159035650Y-33948694D01*
X154515944Y-109697088D02*
X154934553Y-109695248D01*
X155361450Y-109693219D01*
X155796147Y-109691030D01*
X156238162Y-109688713D01*
X156687008Y-109686298D01*
X157142202Y-109683817D01*
X157603257Y-109681300D01*
X158069690Y-109678779D01*
X158541016Y-109676283D01*
X159016749Y-109673844D01*
X159496405Y-109671494D01*
X159979498Y-109669261D01*
X160465545Y-109667179D01*
X160954061Y-109665276D01*
X161444559Y-109663586D01*
X161936557Y-109662137D01*
X162429568Y-109660961D01*
X162923107Y-109660089D01*
X163416691Y-109659552D01*
X163909835Y-109659381D01*
X164402052Y-109659606D01*
X164892859Y-109660259D01*
X165381771Y-109661370D01*
X165868303Y-109662970D01*
X166351970Y-109665090D01*
X166832287Y-109667762D01*
X167308769Y-109671015D01*
X167780932Y-109674880D01*
X168248290Y-109679390D01*
X168710359Y-109684573D01*
X169166654Y-109690462D01*
X169616691Y-109697088D01*
X106063845Y-35538823D02*
X106810137Y-35396129D01*
X107573348Y-35262149D01*
X108352557Y-35136609D01*
X109146843Y-35019239D01*
X109955289Y-34909769D01*
X110776972Y-34807925D01*
X111610975Y-34713438D01*
X112456376Y-34626036D01*
X113312256Y-34545448D01*
X114177695Y-34471403D01*
X115051773Y-34403629D01*
X115933571Y-34341855D01*
X116822169Y-34285809D01*
X117716647Y-34235222D01*
X118616084Y-34189821D01*
X119519562Y-34149335D01*
X120426159Y-34113493D01*
X121334958Y-34082023D01*
X122245037Y-34054655D01*
X123155476Y-34031118D01*
X124065357Y-34011139D01*
X124973759Y-33994448D01*
X125879762Y-33980774D01*
X126782446Y-33969844D01*
X127680892Y-33961389D01*
X128574180Y-33955137D01*
X129461390Y-33950816D01*
X130341602Y-33948156D01*
X131213896Y-33946885D01*
X132077352Y-33946732D01*
X132931052Y-33947425D01*
X133774074Y-33948694D01*
X178863484Y-110661636D02*
X179064125Y-110725500D01*
X179262464Y-110792184D01*
X179458646Y-110861729D01*
X179652815Y-110934176D01*
X179845118Y-111009568D01*
X180035700Y-111087946D01*
X180224705Y-111169352D01*
X180412280Y-111253828D01*
X180598569Y-111341415D01*
X180783718Y-111432157D01*
X180967873Y-111526094D01*
X181151178Y-111623268D01*
X181333779Y-111723722D01*
X181515821Y-111827496D01*
X181697450Y-111934634D01*
X181878811Y-112045176D01*
X182060049Y-112159165D01*
X182241310Y-112276642D01*
X182422739Y-112397649D01*
X182604481Y-112522229D01*
X182786682Y-112650422D01*
X182969487Y-112782271D01*
X183153041Y-112917818D01*
X183337489Y-113057104D01*
X183522978Y-113200171D01*
X183709652Y-113347062D01*
X183897656Y-113497818D01*
X184087137Y-113652480D01*
X184278238Y-113811091D01*
X184471107Y-113973693D01*
X184665887Y-114140326D01*
X184862725Y-114311035D01*
X194394927Y-124183536D02*
X194627735Y-124453386D01*
X194857247Y-124720693D01*
X195083629Y-124985545D01*
X195307042Y-125248030D01*
X195527653Y-125508237D01*
X195745624Y-125766254D01*
X195961121Y-126022170D01*
X196174306Y-126276071D01*
X196385344Y-126528048D01*
X196594398Y-126778188D01*
X196801634Y-127026579D01*
X197007215Y-127273310D01*
X197211304Y-127518470D01*
X197414067Y-127762145D01*
X197615667Y-128004425D01*
X197816268Y-128245399D01*
X198016035Y-128485153D01*
X198215130Y-128723778D01*
X198413719Y-128961360D01*
X198611965Y-129197988D01*
X198810033Y-129433751D01*
X199008086Y-129668736D01*
X199206288Y-129903033D01*
X199404804Y-130136730D01*
X199603797Y-130369913D01*
X199803432Y-130602673D01*
X200003873Y-130835098D01*
X200205283Y-131067275D01*
X200407827Y-131299293D01*
X200611669Y-131531240D01*
X200816972Y-131763205D01*
X201023902Y-131995276D01*
X227118813Y-119389747D02*
X227119518Y-119099669D01*
X227118356Y-118808497D01*
X227115337Y-118516205D01*
X227110472Y-118222767D01*
X227103773Y-117928158D01*
X227095251Y-117632352D01*
X227084917Y-117335323D01*
X227072783Y-117037047D01*
X227058860Y-116737497D01*
X227043159Y-116436648D01*
X227025691Y-116134475D01*
X227006469Y-115830951D01*
X226985502Y-115526051D01*
X226962803Y-115219750D01*
X226938383Y-114912022D01*
X226912253Y-114602842D01*
X226884424Y-114292183D01*
X226854908Y-113980021D01*
X226823716Y-113666330D01*
X226790859Y-113351083D01*
X226756349Y-113034257D01*
X226720196Y-112715824D01*
X226682413Y-112395760D01*
X226643011Y-112074039D01*
X226602000Y-111750635D01*
X226559392Y-111425522D01*
X226515199Y-111098676D01*
X226469431Y-110770071D01*
X226422100Y-110439681D01*
X226373218Y-110107480D01*
X226322795Y-109773443D01*
X226270844Y-109437545D01*
M02*
