M48
; DRILL file {KiCad (6.0.10)} date Thu Mar 14 08:00:30 2024
; FORMAT={-:-/ absolute / metric / decimal}
; #@! TF.CreationDate,2024-03-14T08:00:30-04:00
; #@! TF.GenerationSoftware,Kicad,Pcbnew,(6.0.10)
; #@! TF.FileFunction,Plated,1,2,PTH
FMAT,2
METRIC
; #@! TA.AperFunction,Plated,PTH,ViaDrill
T1C0.400
; #@! TA.AperFunction,Plated,PTH,ComponentDrill
T2C0.762
; #@! TA.AperFunction,Plated,PTH,ComponentDrill
T3C0.800
; #@! TA.AperFunction,Plated,PTH,ComponentDrill
T4C1.000
%
G90
G05
T1
X99.06Y-93.98
X100.33Y-100.33
X100.33Y-102.87
X101.6Y-99.06
X102.87Y-97.79
X119.38Y-95.25
X121.92Y-78.74
X121.92Y-99.06
X123.19Y-99.06
X127.0Y-93.98
X129.54Y-99.06
X132.08Y-93.98
X134.62Y-91.44
X134.62Y-99.06
X134.62Y-100.33
X138.43Y-87.63
X139.7Y-99.06
X139.7Y-100.33
X147.32Y-81.28
T2
X76.2Y-85.09
X76.2Y-107.95
X78.74Y-85.09
X78.74Y-107.95
X81.28Y-85.09
X81.28Y-107.95
X83.82Y-85.09
X83.82Y-107.95
X86.36Y-85.09
X86.36Y-107.95
X87.63Y-55.88
X87.63Y-58.42
X87.63Y-60.96
X87.63Y-63.5
X87.63Y-66.04
X88.9Y-85.09
X88.9Y-107.95
X91.44Y-85.09
X91.44Y-107.95
X93.98Y-85.09
X93.98Y-107.95
X96.52Y-85.09
X96.52Y-107.95
X99.06Y-85.09
X99.06Y-107.95
X101.6Y-85.09
X101.6Y-107.95
X104.14Y-85.09
X104.14Y-107.95
X106.68Y-85.09
X106.68Y-107.95
X109.22Y-85.09
X109.22Y-107.95
X111.76Y-85.09
X111.76Y-107.95
X114.3Y-85.09
X114.3Y-107.95
X116.84Y-85.09
X116.84Y-107.95
X119.38Y-85.09
X119.38Y-107.95
X121.92Y-85.09
X121.92Y-107.95
X132.08Y-106.68
X134.62Y-106.68
X137.16Y-106.68
X139.7Y-106.68
X142.24Y-106.68
X144.78Y-25.4
X144.78Y-106.68
X147.32Y-25.4
X147.32Y-106.68
X149.86Y-25.4
X149.86Y-106.68
X152.4Y-25.4
X152.4Y-106.68
X154.94Y-106.68
X157.48Y-106.68
X160.02Y-106.68
X162.56Y-106.68
X165.1Y-106.68
X177.8Y-40.64
X179.07Y-62.23
X180.34Y-40.64
X182.88Y-40.64
X184.15Y-67.31
X187.96Y-85.09
X193.04Y-90.17
X199.39Y-62.23
X204.47Y-67.31
T3
X187.96Y-104.14
X203.2Y-104.14
T4
X194.88Y-46.985
X197.38Y-46.985
T0
M30
